<svg width="245" height="308" viewBox="0 0 245 308" fill="none" xmlns="http://www.w3.org/2000/svg">
<g clip-path="url(#clip0_1584_8976)">
<path d="M238.27 300.94V73.97L121.57 7.21997L5.78998 73.97V300.94H238.27Z" stroke="url(#paint0_linear_1584_8976)" stroke-width="1.37" stroke-miterlimit="10"/>
<path d="M242.89 305.9V70.75L121.55 1.34998L1.16998 70.75V305.9H242.89Z" stroke="url(#paint1_linear_1584_8976)" stroke-width="2.34" stroke-miterlimit="10"/>
<path d="M234.01 297.05V76.41L121.59 12.11L10.06 76.41V297.05H234.01Z" fill="url(#paint2_linear_1584_8976)"/>
<path d="M85.82 235.62C85.82 235.62 87.5 234.82 88.15 232.88C88.8 230.94 89.05 228.25 89.05 228.25" stroke="black" stroke-width="1.4" stroke-miterlimit="10"/>
<path d="M87.26 237.45C88.38 236.76 90.1 235.62 90.67 234.45C91.24 233.28 91.54 230.72 91.62 229.71" stroke="black" stroke-width="1.4" stroke-miterlimit="10"/>
<path d="M88.72 238.8C90.06 238.37 92.35 236.14 92.86 235.03C93.37 233.92 93.73 231.26 93.73 231.26" stroke="black" stroke-width="1.4" stroke-miterlimit="10"/>
<path d="M53.18 177.82C54.71 181.2 55.56 186.34 53.15 190.26" stroke="black" stroke-width="1.4" stroke-miterlimit="10"/>
<path d="M52.2 162.51C31.24 164.37 33.42 186.99 38.33 196.6C43.24 206.2 52.09 207.94 65.12 205.47C65.12 205.47 71.38 209.75 73.71 210.3C74.7 210.54 80.43 211.3 80.98 211.19C81.53 211.08 82.21 209.95 81.34 209.53C80.47 209.11 76.31 207.58 76.31 207.58C76.31 207.58 81.19 208.84 82.99 209.1C84.79 209.36 84.96 207.69 82.86 206.84C81.11 206.12 78.14 204.07 78.14 204.07C78.14 204.07 85.1 207.41 85.87 206.02C86.44 204.98 84.71 203.13 79.08 200.25C83.95 203.01 86.06 204.07 86.68 202.84C87.09 202.03 84.4 198.19 78.04 196.09C75.6 195.35 76.13 195.42 76.13 195.42C76.13 195.42 80.68 196.31 80.28 193.16C76.8 193.09 74.17 192.1 71.77 193.09C69.37 194.08 67.13 195.88 67.13 195.88C67.13 195.88 59.45 189.6 50.43 190.26" stroke="black" stroke-width="1.4" stroke-miterlimit="10"/>
<path d="M75.64 168.2C83.31 171.08 94.61 181.87 93.44 200.48" stroke="black" stroke-width="1.4" stroke-miterlimit="10"/>
<path d="M72.47 183.1C73.79 185.8 73.66 191.25 72.94 192.51" stroke="black" stroke-width="1.4" stroke-miterlimit="10"/>
<path d="M61.88 189.02C62.841 189.02 63.62 188.241 63.62 187.28C63.62 186.319 62.841 185.54 61.88 185.54C60.919 185.54 60.14 186.319 60.14 187.28C60.14 188.241 60.919 189.02 61.88 189.02Z" fill="black"/>
<path d="M79.23 179.34C83.22 184.17 82.86 195.17 80.9 197.25" stroke="black" stroke-width="1.4" stroke-miterlimit="10"/>
<path d="M84.31 208.06C86.25 211.86 85.3 217.48 84.41 221.28" stroke="black" stroke-width="1.4" stroke-miterlimit="10"/>
<path d="M86.72 202.16C87.3 200.65 91.91 198.69 94.62 201.73C99.15 207.03 98.65 214.08 95.78 221.27C97.38 225.56 96.69 230.6 96.3 232.94C95.91 235.28 93.32 238.03 91.84 238.59C90.36 239.15 89.8 239.07 89.19 238.68C89.19 238.68 87.66 239.22 87.15 238.63C86.64 238.04 87.25 237.47 87.25 237.47C86.52 237.7 85.98 237.74 85.54 237.01C85.02 236.14 86.25 235.36 86.25 235.36C85.34 236 84.33 235.1 84.24 234.45C84.13 233.62 85.78 231.9 86 230.31C86.22 228.72 85.67 227.06 85.67 227.06L85.39 226.77C85.39 226.77 84.27 230.96 82.38 230.8C80.71 230.63 82.11 225.9 82.11 225.9C82.11 225.9 83.34 222.06 85.09 220.55C87.05 218.85 89.59 218.78 89.59 218.78" stroke="black" stroke-width="1.4" stroke-miterlimit="10"/>
<path d="M80.26 288.28C81.17 289.49 81.26 290.2 81.25 292.11" stroke="black" stroke-width="1.4" stroke-miterlimit="10"/>
<path d="M82.57 287.27C83.75 288.67 83.75 289.91 83.47 291.71" stroke="black" stroke-width="1.4" stroke-miterlimit="10"/>
<path d="M78.67 292.81C78.8 292.01 78.79 290.1 77.84 289" stroke="black" stroke-width="1.4" stroke-miterlimit="10"/>
<path d="M75.32 289.01C75.71 289.68 76.26 290.57 75.48 291.71" stroke="black" stroke-width="1.4" stroke-miterlimit="10"/>
<path d="M89.97 287.58C91.31 287.1 91.4 285.05 89.05 283.08" stroke="black" stroke-width="1.4" stroke-miterlimit="10"/>
<path d="M74.55 224.22C81.33 227.89 85.99 234.38 85.63 243C85.28 251.61 80.1 254.65 80.1 254.65" stroke="black" stroke-width="1.4" stroke-miterlimit="10"/>
<path d="M81.69 253.29C83.62 259.41 80.36 263.34 78.24 271.05C77.72 273.24 77.78 274.81 79.31 276.54C80.84 278.27 83.97 282.64 83.37 284.45C85.79 286.82 87.21 290.01 85.96 291.4C85.66 291.73 84.28 292.34 83.47 291.82C82.51 292.93 81.22 291.69 81.22 291.69C81.26 293.51 79.3 293.25 78.73 292.52C78.23 293.85 76.75 293.2 76.44 292.99C75.73 292.53 75.48 291.68 75.48 291.68C74.46 292.75 73.31 292.26 72.19 289.86C71.07 287.47 68.32 287.08 66.9 284.53C65.48 281.98 65.04 281.41 63.09 280.41C60.9 279.3 60.74 276.56 62.31 274.78C63.89 273 63.89 269.58 63.79 267.9C62.67 256.77 61.45 252.16 66.18 246.8" stroke="black" stroke-width="1.4" stroke-miterlimit="10"/>
<path d="M69.98 246.84C63.65 247.77 56.41 244.2 50.17 238.92C43.26 233.07 44 229.21 44 229.21" stroke="black" stroke-width="1.4" stroke-miterlimit="10"/>
<path d="M96.22 232.19C101.5 235.29 104.64 241.06 100.62 249.48C98.38 254.17 96.27 256.18 88.09 267.51C88.09 267.51 85.43 270.55 86.81 271.71C88.19 272.87 89.1 275.03 89.53 276.5C89.89 277.72 90.87 279.23 91.69 280.64C92.51 282.06 91.95 282.29 92.25 282.64C92.55 282.99 93.16 284.33 92.9 285.26C92.64 286.3 90.03 287.61 89.52 287.69C88 287.93 86.16 287.32 85.83 285.18C83.76 285.32 83.23 282.81 83.23 282.81" stroke="black" stroke-width="1.4" stroke-miterlimit="10"/>
<path d="M51.8 206.22C57.41 207.76 64.34 211.02 64.34 211.02C64.34 211.02 69.45 211.81 68.93 214.37C68.41 216.93 65.86 216.49 63.22 215.9C60.58 215.31 57.25 213.38 57.25 213.38C57.25 213.38 64.8 219.78 65.28 219.93C65.76 220.08 72.98 223.7 73.94 224.01C74.9 224.32 77.69 226.36 76.5 228.19C75.31 230.02 73.03 229.02 71.21 228.28C70.43 227.96 75.17 230 65.91 226.18" stroke="black" stroke-width="1.4" stroke-miterlimit="10"/>
<path d="M74.23 229.22C76.77 229.98 76.86 232.02 76.43 233.39C76 234.76 73.24 234.71 70 233.42C66.75 232.13 61.78 230.6 61.18 230.18C60.58 229.76 54.77 226.56 54.77 226.56" stroke="black" stroke-width="1.4" stroke-miterlimit="10"/>
<path d="M70.56 233.64C72.02 234.1 71.99 235.7 71.84 236.26C71.4 237.96 67.75 237.87 64.64 236.69C61.53 235.51 56.88 234.04 55.7 233.26C54.52 232.48 50.21 230.11 50.21 230.11" stroke="black" stroke-width="1.4" stroke-miterlimit="10"/>
<path d="M63.73 236.34C64.64 236.68 64.66 237.89 64.67 238.36C64.68 239.19 61.83 239.5 57.41 238.1C52.99 236.71 51.75 236.24 50.37 234.54C48.99 232.84 45.93 230.98 44.79 230.18C43.65 229.38 40.13 221.65 34.83 219.49" stroke="black" stroke-width="1.4" stroke-miterlimit="10"/>
<path d="M49.08 158.13C55.73 170.24 69.54 170.99 76.89 167.76C85.71 163.89 85.71 155.06 85.23 150.09C84.93 146.99 85.71 143.77 85.71 136.42C84.51 123.86 74.61 119.33 65.43 119.33C57.3 119.33 43.33 122.84 43.33 138.37C43.32 141.43 43.82 143.2 44.08 144.44" stroke="black" stroke-width="1.4" stroke-miterlimit="10"/>
<path d="M49.15 146.07C48.79 144.33 45.54 142.94 43.68 144.6C41.82 146.26 41.48 150.81 43.03 154.49C44.51 157.99 47.87 159.97 49.97 156.85" stroke="black" stroke-width="1.4" stroke-miterlimit="10"/>
<path d="M47.28 135.33C46.28 136.66 45.59 140.29 46.16 143.65" stroke="black" stroke-width="1.4" stroke-miterlimit="10"/>
<path d="M49.01 145.65C47.55 137.85 58.3 133.88 55.18 127.77" stroke="black" stroke-width="1.4" stroke-miterlimit="10"/>
<path d="M54.01 124.7C55.16 128.74 57.55 133.59 64.52 130.14" stroke="black" stroke-width="1.4" stroke-miterlimit="10"/>
<path d="M60.99 123C63.03 127.59 63.97 134.14 71.75 132.19" stroke="black" stroke-width="1.4" stroke-miterlimit="10"/>
<path d="M66.13 122.78C68.43 126.78 68.98 135.16 77.15 132.01" stroke="black" stroke-width="1.4" stroke-miterlimit="10"/>
<path d="M71.75 123.59C74.05 128.4 75.32 134.27 80.98 131.67" stroke="black" stroke-width="1.4" stroke-miterlimit="10"/>
<path d="M77.41 125.51C79.03 128.53 80.03 134.13 85.29 133.65" stroke="black" stroke-width="1.4" stroke-miterlimit="10"/>
<path d="M45.36 153.33C46.85 152.95 46.27 155.1 47.88 154.84C50.01 154.51 48.57 150.12 47.18 148.58" stroke="black" stroke-width="1.4" stroke-miterlimit="10"/>
<path d="M85.48 144.04C82.62 140.95 76.1 140.94 74.84 145.65C74.24 147.9 74.21 150.64 74.66 153.77C74.76 154.43 74.32 155 73.7 155.22C71.41 156.03 68.62 156.48 68.86 154.08" stroke="black" stroke-width="1.4" stroke-miterlimit="10"/>
<path d="M69.62 145.14C67.82 142.42 61.7 139.09 56.3 143.66" stroke="black" stroke-width="1.4" stroke-miterlimit="10"/>
<path d="M67.83 146.86C65.86 145.93 61.9 145.13 58.12 146.38" stroke="black" stroke-width="1.4" stroke-miterlimit="10"/>
<path d="M62.97 149.07C63.9752 149.07 64.79 148.255 64.79 147.25C64.79 146.245 63.9752 145.43 62.97 145.43C61.9649 145.43 61.15 146.245 61.15 147.25C61.15 148.255 61.9649 149.07 62.97 149.07Z" fill="black"/>
<path d="M79.41 149.07C80.4151 149.07 81.23 148.255 81.23 147.25C81.23 146.245 80.4151 145.43 79.41 145.43C78.4048 145.43 77.59 146.245 77.59 147.25C77.59 148.255 78.4048 149.07 79.41 149.07Z" fill="black"/>
<path d="M75.24 159.27C72.87 159.92 69.78 159.94 67.17 159.4" stroke="black" stroke-width="1.4" stroke-miterlimit="10"/>
<path d="M69.32 163.56C70.58 162.99 72.55 163.15 73.51 163.56" stroke="black" stroke-width="1.4" stroke-miterlimit="10"/>
<path d="M75.51 146.86C77.91 145.7 80.53 145.13 83.94 147.25" stroke="black" stroke-width="1.4" stroke-miterlimit="10"/>
<path d="M85.33 215.93C82.01 217.85 71.52 217.21 64.26 216.11" stroke="black" stroke-width="1.4" stroke-miterlimit="10"/>
<path d="M210.89 246.06C231.08 219.52 234.63 163.56 226.25 124.7C217.87 85.83 200.44 49.76 184.72 57C172.34 62.7 180.78 93.46 169.95 100.41C163.29 104.69 161.56 105.59 157.31 108.21" stroke="black" stroke-width="1.4" stroke-miterlimit="10"/>
<path d="M220.18 101.92C221.68 105.85 222.12 112.39 219.3 112.94C216.48 113.49 213.9 108.95 210.76 98.35C200.57 69.43 194.16 64.84 188.95 65.72C183.33 66.67 183.83 74.87 182.89 88.89C182.59 93.4 182.41 100.36 176.82 104.49C172.41 107.75 163.9 111.91 163.9 111.91" stroke="black" stroke-width="1.4" stroke-miterlimit="10"/>
<path d="M211.11 99.4401C212.81 105.34 215.57 114.1 211.46 115.17C207.94 116.09 205.17 107.81 202.53 99.5201L199.93 91.3301" stroke="black" stroke-width="1.4" stroke-miterlimit="10"/>
<path d="M201.43 76.33C203.96 81.85 204.66 89.81 200.73 90.84C197.04 91.81 193.84 83.92 191.5 76.43C191.1 75.14 188.3 65.84 188.3 65.84" stroke="black" stroke-width="1.4" stroke-miterlimit="10"/>
<path d="M200.19 92.1801C203.3 101.93 207.28 115.77 202.75 117.01C197.47 118.45 193.03 98.8301 191.93 93.8001" stroke="black" stroke-width="1.4" stroke-miterlimit="10"/>
<path d="M191.93 93.8C194.6 105.65 195.54 111.37 195.01 114.19" stroke="black" stroke-width="1.4" stroke-miterlimit="10"/>
<path d="M182.73 91.1C184.11 97.34 185.68 103.97 186.93 110.41" stroke="black" stroke-width="1.4" stroke-miterlimit="10"/>
<path d="M225.68 122.11C228.29 136.02 227.52 145.1 223.81 145.1C220.61 145.1 216.99 138.01 214.87 125.51C213.82 119.33 212.48 114.37 212.48 114.37" stroke="black" stroke-width="1.4" stroke-miterlimit="10"/>
<path d="M214.62 124.09C216.82 135.8 215.65 144.36 211.39 146.26" stroke="black" stroke-width="1.4" stroke-miterlimit="10"/>
<path d="M230.34 159.27C230.77 185.53 225.23 189.03 223.16 187.96C219.74 186.2 219.12 176.63 218.11 158.11C217.54 147.65 217.33 145.64 215.98 131.42" stroke="black" stroke-width="1.4" stroke-miterlimit="10"/>
<path d="M218.05 157.03C218.82 167.15 217.05 173.58 214.65 176.6" stroke="black" stroke-width="1.4" stroke-miterlimit="10"/>
<path d="M190.86 74.34C193.16 81.43 197.05 91.53 192.64 93.58C189.38 95.1 184.82 90.03 183.23 81.66" stroke="black" stroke-width="1.4" stroke-miterlimit="10"/>
<path d="M178.18 109.39L177.04 104.04" stroke="black" stroke-width="1.4" stroke-miterlimit="10"/>
<path d="M32.57 246.06C12.38 219.52 8.83 163.56 17.21 124.7C25.59 85.83 43.02 49.76 58.74 57C71.12 62.7 62.68 93.46 73.51 100.41C80.17 104.69 81.9 105.59 86.15 108.21" stroke="black" stroke-width="1.4" stroke-miterlimit="10"/>
<path d="M23.27 101.92C21.77 105.85 21.33 112.39 24.15 112.94C26.97 113.49 29.55 108.95 32.69 98.35C42.88 69.43 49.29 64.84 54.5 65.72C60.12 66.67 59.62 74.87 60.56 88.89C60.86 93.4 61.04 100.36 66.63 104.49C71.04 107.75 79.32 111.63 79.32 111.63" stroke="black" stroke-width="1.4" stroke-miterlimit="10"/>
<path d="M32.34 99.4401C30.64 105.34 27.88 114.1 31.99 115.17C35.51 116.09 38.28 107.81 40.92 99.5201L43.52 91.3301" stroke="black" stroke-width="1.4" stroke-miterlimit="10"/>
<path d="M42.02 76.33C39.49 81.85 38.79 89.81 42.72 90.84C46.41 91.81 49.61 83.92 51.95 76.43C52.35 75.14 55.15 65.84 55.15 65.84" stroke="black" stroke-width="1.4" stroke-miterlimit="10"/>
<path d="M43.26 92.1801C40.15 101.93 36.17 115.77 40.7 117.01C45.98 118.45 50.42 98.8301 51.52 93.8001" stroke="black" stroke-width="1.4" stroke-miterlimit="10"/>
<path d="M51.52 93.8C48.85 105.65 47.91 111.37 48.44 114.19" stroke="black" stroke-width="1.4" stroke-miterlimit="10"/>
<path d="M60.73 91.1C59.35 97.34 57.78 103.97 56.53 110.41" stroke="black" stroke-width="1.4" stroke-miterlimit="10"/>
<path d="M17.78 122.11C15.17 136.02 15.94 145.1 19.65 145.1C22.85 145.1 26.47 138.01 28.59 125.51C29.64 119.33 30.98 114.37 30.98 114.37" stroke="black" stroke-width="1.4" stroke-miterlimit="10"/>
<path d="M28.84 124.09C26.64 135.8 27.81 144.36 32.07 146.26" stroke="black" stroke-width="1.4" stroke-miterlimit="10"/>
<path d="M13.11 159.27C12.68 185.53 18.2 187.64 20.28 186.57C23.7 184.81 24.33 176.63 25.34 158.12C25.91 147.66 26.12 145.65 27.47 131.43" stroke="black" stroke-width="1.4" stroke-miterlimit="10"/>
<path d="M25.4 157.03C24.63 167.15 26.4 173.58 28.8 176.6" stroke="black" stroke-width="1.4" stroke-miterlimit="10"/>
<path d="M52.59 74.34C50.29 81.43 46.4 91.53 50.81 93.58C54.07 95.1 58.63 90.03 60.22 81.66" stroke="black" stroke-width="1.4" stroke-miterlimit="10"/>
<path d="M65.27 109.39L66.41 104.04" stroke="black" stroke-width="1.4" stroke-miterlimit="10"/>
<path d="M38.96 168.81C34.32 170.18 19.3 179.28 16.19 204.34" stroke="black" stroke-width="1.4" stroke-miterlimit="10"/>
<path d="M35.25 185.8C24.19 187.28 18.75 197.34 19.33 217.58" stroke="black" stroke-width="1.4" stroke-miterlimit="10"/>
<path d="M37.06 194.53C26.48 195 22.11 205.94 24.07 231.14" stroke="black" stroke-width="1.4" stroke-miterlimit="10"/>
<path d="M41.94 201.63C32.59 205.48 31.97 208.03 32.2 223.62C32.48 242.08 32.2 296.29 32.2 296.29C41.18 291.82 40.92 284.12 40.92 272.2V235.61" stroke="black" stroke-width="1.4" stroke-miterlimit="10"/>
<path d="M40.98 273.62C47.47 270.84 50.64 265.57 50.64 255C50.64 244.44 50.64 238.95 50.64 238.95" stroke="black" stroke-width="1.4" stroke-miterlimit="10"/>
<path d="M204.51 168.93C209.15 170.3 223.93 180.22 227.04 205.28" stroke="black" stroke-width="1.4" stroke-miterlimit="10"/>
<path d="M207.86 185.8C218.92 187.28 224.33 198.68 223.75 218.92" stroke="black" stroke-width="1.4" stroke-miterlimit="10"/>
<path d="M206.05 194.53C216.63 195 221 206.74 219.04 231.93" stroke="black" stroke-width="1.4" stroke-miterlimit="10"/>
<path d="M201.17 201.63C210.52 205.48 211.14 208.03 210.91 223.62C210.63 242.08 210.91 296.99 210.91 296.99C201.93 292.52 202.19 284.82 202.19 272.9C202.19 260.98 202.19 235.95 202.19 235.95" stroke="black" stroke-width="1.4" stroke-miterlimit="10"/>
<path d="M202.19 273.62C195.7 270.84 192.53 265.57 192.53 255C192.53 244.43 192.53 239.88 192.53 239.88" stroke="black" stroke-width="1.4" stroke-miterlimit="10"/>
<path d="M58.77 244.63L51.43 287.93" stroke="black" stroke-width="1.4" stroke-miterlimit="10"/>
<path d="M113.81 197.25L110.07 287.93" stroke="black" stroke-width="1.4" stroke-miterlimit="10"/>
<path d="M101.68 246.85L100.16 287.93" stroke="black" stroke-width="1.4" stroke-miterlimit="10"/>
<path d="M103.5 197.25L101.96 239.03" stroke="black" stroke-width="1.4" stroke-miterlimit="10"/>
<path d="M94.22 259.19L91.24 279.87" stroke="black" stroke-width="1.4" stroke-miterlimit="10"/>
<path d="M93.05 189.67H151.66" stroke="black" stroke-width="1.4" stroke-miterlimit="10"/>
<path d="M93.53 197.25H150.73" stroke="black" stroke-width="1.4" stroke-miterlimit="10"/>
<path d="M147.85 220.86C146.25 225.15 147.13 231.67 147.51 234.01C147.9 236.35 150.53 237.93 152.01 238.5C153.49 239.07 153.89 239.06 154.49 238.67C154.49 238.67 155.98 239.19 156.56 238.67C157.14 238.15 156.43 237.46 156.43 237.46C157.16 237.69 157.7 237.73 158.14 237C158.66 236.13 156.89 235.06 156.89 235.06C157.8 235.7 159.17 235.61 159.28 234.73C159.38 233.9 157.74 233.01 157.51 231.12C157.32 229.53 157.67 228.06 157.67 228.06L158.42 227.01C158.42 227.01 158.88 228.29 159.6 229.61C159.88 230.12 160.21 230.71 161.08 230.53C161.95 230.37 161.93 229.58 161.98 228.84C162.08 227.44 161.57 225.9 161.57 225.9C161.57 225.9 160.34 222.06 158.59 220.55C156.63 218.85 154.09 218.78 154.09 218.78C151.92 218.49 149.36 219.49 147.69 220.97" stroke="black" stroke-width="1.4" stroke-miterlimit="10"/>
<path d="M157.43 235.35C157.43 235.35 155.9 234.78 155.25 232.85C154.6 230.92 154.78 230.15 154.78 230.15" stroke="black" stroke-width="1.4" stroke-miterlimit="10"/>
<path d="M156.43 237.45C155.31 236.76 153.58 235.66 153.02 234.49C152.46 233.32 152.31 231.78 152.33 231.27" stroke="black" stroke-width="1.4" stroke-miterlimit="10"/>
<path d="M154.97 238.8C153.63 238.37 150.99 236.16 150.48 235.05C149.97 233.94 149.96 232.51 149.96 232.51" stroke="black" stroke-width="1.4" stroke-miterlimit="10"/>
<path d="M178.58 205.46C191.61 207.93 200.46 206.2 205.37 196.59C210.23 187.08 212.89 166.15 192.68 162.57" stroke="black" stroke-width="1.4" stroke-miterlimit="10"/>
<path d="M166.99 166.72C157.97 168.92 152.11 174.75 150.32 202.49" stroke="black" stroke-width="1.4" stroke-miterlimit="10"/>
<path d="M160.57 169.55C159.59 177.15 159.79 194.26 160.4 198.66" stroke="black" stroke-width="1.4" stroke-miterlimit="10"/>
<path d="M160.37 208.67C158.43 212.47 158.53 217.65 159.41 221.45" stroke="black" stroke-width="1.4" stroke-miterlimit="10"/>
<path d="M158.33 204.23C157.91 203.6 153.45 200.58 150.32 202.49C147.05 207.97 146.02 214.21 147.91 221.26" stroke="black" stroke-width="1.4" stroke-miterlimit="10"/>
<path d="M191.08 206.31C185.48 207.89 179.35 211.02 179.35 211.02C179.35 211.02 174.24 211.81 174.76 214.37C175.28 216.93 177.83 216.49 180.47 215.9C183.11 215.31 188 213 188 213C188 213 178.89 219.78 178.41 219.93C177.93 220.08 170.71 223.7 169.75 224.01C168.79 224.32 166 226.36 167.19 228.19C168.38 230.02 170.66 229.02 172.48 228.28C174.3 227.54 179.27 225.63 180.18 225.19C181.09 224.75 188.58 220.85 188.58 220.85" stroke="black" stroke-width="1.4" stroke-miterlimit="10"/>
<path d="M169.46 229.22C166.92 229.98 166.83 232.02 167.26 233.39C167.69 234.76 170.45 234.71 173.69 233.42C176.94 232.13 181.91 230.6 182.51 230.18C183.11 229.76 192.1 224.55 192.1 224.55" stroke="black" stroke-width="1.4" stroke-miterlimit="10"/>
<path d="M173.13 233.64C171.67 234.1 171.7 235.7 171.85 236.26C172.29 237.96 175.94 237.87 179.05 236.69C182.16 235.51 186.81 234.04 187.99 233.26C189.17 232.48 195.62 228.84 195.62 228.84" stroke="black" stroke-width="1.4" stroke-miterlimit="10"/>
<path d="M179.96 236.34C179.05 236.68 179.03 237.89 179.02 238.36C179.01 239.19 181.86 239.5 186.28 238.1C190.7 236.7 191.94 236.24 193.32 234.54C194.7 232.84 197.76 230.98 198.9 230.18C200.04 229.38 205.63 221.09 210.94 218.92" stroke="black" stroke-width="1.4" stroke-miterlimit="10"/>
<path d="M158.81 216C162.13 217.92 172.17 217.21 179.43 216.11" stroke="black" stroke-width="1.4" stroke-miterlimit="10"/>
<path d="M196.88 156.11C189.51 173.07 173.32 171.21 166.99 166.72C161.05 162.5 158.83 158.04 158.44 150.34C158.29 147.26 157.97 143.38 157.97 136.11C159.16 123.7 168.94 119.22 178.01 119.22C184.85 119.29 195.19 122.36 198.76 133C199.58 135.44 199.91 137.29 199.82 139.86" stroke="black" stroke-width="1.4" stroke-miterlimit="10"/>
<path d="M178.11 119.24C172.2 119.24 172.02 132.06 172.02 136.04" stroke="black" stroke-width="1.4" stroke-miterlimit="10"/>
<path d="M185.77 120.51C178.85 120.2 175.07 127.5 173.3 135.91" stroke="black" stroke-width="1.4" stroke-miterlimit="10"/>
<path d="M170.84 120.21C167.88 124.32 169.69 134.09 170.94 136.04" stroke="black" stroke-width="1.4" stroke-miterlimit="10"/>
<path d="M196.11 155.86C199.33 155.86 201.94 151.925 201.94 147.07C201.94 142.215 199.33 138.28 196.11 138.28C192.89 138.28 190.28 142.215 190.28 147.07C190.28 151.925 192.89 155.86 196.11 155.86Z" stroke="black" stroke-width="1.53" stroke-miterlimit="10"/>
<path d="M196.11 151.98C197.507 151.98 198.64 149.782 198.64 147.07C198.64 144.358 197.507 142.16 196.11 142.16C194.713 142.16 193.58 144.358 193.58 147.07C193.58 149.782 194.713 151.98 196.11 151.98Z" stroke="black" stroke-width="1.53" stroke-miterlimit="10"/>
<path d="M158.27 148.57L160.07 146.26C160.55 145.64 161.3 145.28 162.08 145.28H167.39C168.49 145.28 169.38 146.17 169.38 147.27V154.63C169.4 155.16 169.83 155.59 170.36 155.59H173.64C174.17 155.59 174.6 155.16 174.61 154.63L174.64 152.36V147.26C174.64 146.16 175.53 145.27 176.63 145.27H183.27C183.95 145.27 184.61 145.54 185.09 146.03L186.94 147.91" stroke="black" stroke-width="1.4" stroke-miterlimit="10"/>
<path d="M164.52 149.09C165.536 149.09 166.36 148.266 166.36 147.25C166.36 146.234 165.536 145.41 164.52 145.41C163.504 145.41 162.68 146.234 162.68 147.25C162.68 148.266 163.504 149.09 164.52 149.09Z" fill="black"/>
<path d="M180.21 149.09C181.226 149.09 182.05 148.266 182.05 147.25C182.05 146.234 181.226 145.41 180.21 145.41C179.194 145.41 178.37 146.234 178.37 147.25C178.37 148.266 179.194 149.09 180.21 149.09Z" fill="black"/>
<path d="M191.65 141.6C191.51 139.94 191.27 138.7 190.87 138.4C187.57 135.91 165.53 135.81 157.97 137.37" stroke="black" stroke-width="1.4" stroke-miterlimit="10"/>
<path d="M166.62 166.15C167.17 164.03 168.66 162.36 172.15 162.36C175.41 162.36 177.15 164.06 177.68 165.99C181.88 166.25 191.62 163.69 191.62 154.48C191.62 154.48 191.64 153.15 191.67 152.48" stroke="black" stroke-width="1.4" stroke-miterlimit="10"/>
<path d="M168.53 159.37C170.95 159.64 173.38 159.64 175.8 159.37" stroke="black" stroke-width="1.51" stroke-miterlimit="10"/>
<path d="M164 182.01L166 179.99H181.93L191.24 189.21" stroke="black" stroke-width="1.4" stroke-miterlimit="10"/>
<path d="M189.13 186.91C188.87 179.66 194.61 164.8 202.51 166.66" stroke="black" stroke-width="1.4" stroke-miterlimit="10"/>
<path d="M175.72 194.8C175.72 194.8 182.65 190.52 191.13 189.11C191.89 183.32 200.69 171.63 208.06 176.35" stroke="black" stroke-width="1.4" stroke-miterlimit="10"/>
<path d="M204.779 197.657C206.684 194.054 206.678 190.313 204.764 189.301C202.85 188.289 199.754 190.389 197.849 193.992C195.943 197.595 195.95 201.337 197.864 202.349C199.778 203.361 202.874 201.26 204.779 197.657Z" stroke="black" stroke-width="1.4" stroke-miterlimit="10"/>
<path d="M165.983 252.684C169.188 251.983 170.928 247.491 169.869 242.652C168.81 237.812 165.354 234.457 162.149 235.158C158.944 235.859 157.205 240.351 158.263 245.19C159.322 250.03 162.778 253.385 165.983 252.684Z" stroke="black" stroke-width="1.4" stroke-miterlimit="10"/>
<path d="M146.912 252.056C149.607 251.888 151.556 247.958 151.264 243.278C150.972 238.598 148.55 234.941 145.855 235.109C143.159 235.277 141.211 239.207 141.503 243.887C141.795 248.567 144.216 252.224 146.912 252.056Z" stroke="black" stroke-width="1.4" stroke-miterlimit="10"/>
<path d="M191.12 188.93C190.64 193.06 192.52 196.48 196.52 197.72" stroke="black" stroke-width="1.4" stroke-miterlimit="10"/>
<path d="M191.63 187.84C194.18 187.27 198.21 189.09 200.05 190.79" stroke="black" stroke-width="1.4" stroke-miterlimit="10"/>
<path d="M178.63 205.34C178.63 205.34 172.31 209.74 169.98 210.29C168.99 210.53 163.26 211.29 162.71 211.18C162.16 211.07 161.48 209.94 162.35 209.52C163.22 209.1 167.72 207.38 167.72 207.38C167.72 207.38 162.7 208.9 160.89 209.07C160.02 209.18 159.17 207.52 160.44 206.91C162.14 206.07 165.84 203.9 165.84 203.9C165.84 203.9 161.63 205.75 159.31 206.23C158.7 206.36 158.44 206.31 158.08 205.76C157.75 205.27 158 204.91 158.34 204.5C159.2 203.49 161.16 202.19 164.68 200.39C161.54 202.17 159.64 203.07 158.46 203.35C157.91 203.48 157.61 203.46 157.2 202.94C156.92 202.59 156.99 202.27 157.31 201.8C158.22 200.48 160.6 198.47 161.66 197.8C162.56 197.23 164.13 196.59 165.65 196.09L168.09 195.35C168.09 195.35 162.69 196.28 163.08 193.13C166.26 192.75 169.11 192.48 171.62 193.16C175.23 194.14 176.56 195.88 176.56 195.88C179.22 198.82 179.14 202.03 178.62 205.35L178.63 205.34Z" stroke="black" stroke-width="1.4" stroke-miterlimit="10"/>
<path d="M150.48 200.19C151.16 199.05 156.78 196.74 160.21 198.3" stroke="black" stroke-width="1.4" stroke-miterlimit="10"/>
<path d="M169.6 249.41C171.78 252.22 176.32 253.2 180.07 251.2" stroke="black" stroke-width="1.4" stroke-miterlimit="10"/>
<path d="M151.05 246.75C153.18 249.68 156.75 250.83 160.94 250.83" stroke="black" stroke-width="1.4" stroke-miterlimit="10"/>
<path d="M167.2 272.97C171.58 273.78 175.93 274.24 180.03 271.89" stroke="black" stroke-width="1.4" stroke-miterlimit="10"/>
<path d="M169.14 224.22C162.36 227.89 157.7 234.38 158.06 243C158.27 248.1 160.1 249.49 161.62 251.2C159.94 257.89 164.71 262.99 166.83 270.71C167.41 274.61 164.38 276.55 162.88 278.45C161.38 280.35 159.53 285.31 159.53 285.31C159.53 285.31 154.64 289.74 157.74 291.41C161.44 293.55 167.01 292.82 168.61 292.3C171.35 291.4 173.36 289.73 174.88 287.43C176.72 284.64 176.43 283.77 181 280.34C183.37 278.57 182.76 277.07 181.98 275.67C181.58 274.95 180.04 273.44 180.03 271.02C180.36 261.53 182.45 252.19 177.72 246.84C182.92 246.15 188.61 243.04 193.53 238.92C195.54 237.24 197.81 234.09 199.07 232.24" stroke="black" stroke-width="1.4" stroke-miterlimit="10"/>
<path d="M181.66 275.19C180.38 277.76 176.72 279.07 176.03 279.98C175.34 280.89 173.61 284.05 170.93 287.5C169.87 288.86 167.53 293.39 159.65 292.23" stroke="black" stroke-width="1.4" stroke-miterlimit="10"/>
<path d="M159.94 284.25C158.4 286.89 156.62 288.47 153.9 287.4C151.75 286.55 150.98 285.29 150.96 283.85C150.94 282.41 152.85 281.75 153.99 279.06C155.13 276.37 154.18 274.12 156.14 271.41C157.25 269.7 155.55 267.42 155.55 267.42C147.37 256.1 145.53 254.07 143.08 249.48C139.5 242.76 142.2 235.29 147.48 232.19" stroke="black" stroke-width="1.4" stroke-miterlimit="10"/>
<path d="M166.6 269.37C169.74 269.65 177.89 269.52 180.17 267.6" stroke="black" stroke-width="1.4" stroke-miterlimit="10"/>
<path d="M156.45 269.48C158.59 270.99 163.78 271.12 166.6 269.37" stroke="black" stroke-width="1.4" stroke-miterlimit="10"/>
<path d="M155.35 267.16C156.75 267.46 163.11 267.11 165.05 265.74" stroke="black" stroke-width="1.4" stroke-miterlimit="10"/>
<path d="M184.92 244.61L192.26 287.93" stroke="black" stroke-width="1.4" stroke-miterlimit="10"/>
<path d="M121.83 197.13L121.68 287.93" stroke="black" stroke-width="1.4" stroke-miterlimit="10"/>
<path d="M129.86 197.25L133.86 288.28" stroke="black" stroke-width="1.4" stroke-miterlimit="10"/>
<path d="M142.83 249L144.01 287.93" stroke="black" stroke-width="1.4" stroke-miterlimit="10"/>
<path d="M141.25 197.13L142.49 237.96" stroke="black" stroke-width="1.4" stroke-miterlimit="10"/>
<path d="M149.6 259.36L152.92 280.89" stroke="black" stroke-width="1.4" stroke-miterlimit="10"/>
<path d="M121.68 189.87V167.02" stroke="black" stroke-width="1.4" stroke-miterlimit="10"/>
<path d="M112.15 189.67C111.77 188.47 110.97 185.01 110.13 181.21" stroke="black" stroke-width="1.4" stroke-miterlimit="10"/>
<path d="M101.72 189.67C101.55 189.28 100.89 187.55 100.09 185.44" stroke="black" stroke-width="1.4" stroke-miterlimit="10"/>
<path d="M131.54 189.67C133 184.67 135.27 175.23 136.18 165.2" stroke="black" stroke-width="1.4" stroke-miterlimit="10"/>
<path d="M141.97 189.67C142.78 187.81 143.58 185.72 144.31 183.48" stroke="black" stroke-width="1.4" stroke-miterlimit="10"/>
<path d="M88.01 117.08C97.91 114.77 106.94 111.69 107.15 104C107.36 96.31 107.15 95.1 107.15 95.1" stroke="black" stroke-width="1.4" stroke-miterlimit="10"/>
<path d="M121.68 44.6899C121.68 44.6899 121.68 46.7199 121.68 55.4699M121.68 55.4699C121.68 64.2199 129.76 63.7999 135.17 65.6599C140.58 67.5199 140.38 70.9099 140.38 79.6099C140.38 95.8399 129.7 104.41 121.68 104.41C113.66 104.41 102.98 95.8399 102.98 79.6099C102.98 70.9099 102.77 67.5099 108.19 65.6599C113.61 63.8099 121.68 64.2199 121.68 55.4699ZM121.68 55.4699V45.6699" stroke="black" stroke-width="1.4" stroke-miterlimit="10"/>
<path d="M140.32 73.73C140.32 70.63 134.7 69.1 131.31 69.46C126.28 69.98 123.93 71.87 123.93 79.52C123.93 82.78 124.62 87.62 124.62 87.62C124.62 87.62 123.41 88.71 121.68 88.71C120.08 88.71 118.74 87.62 118.74 87.62C118.74 87.62 119.43 82.79 119.43 79.52C119.43 71.86 117.08 69.98 112.05 69.46C108.66 69.11 103.04 70.64 103.04 73.73" stroke="black" stroke-width="1.4" stroke-miterlimit="10"/>
<path d="M118.92 116.53C119.24 116.91 120.15 117.93 121.69 117.93C123.11 117.93 124.14 116.91 124.46 116.53" stroke="black" stroke-width="1.4" stroke-miterlimit="10"/>
<path d="M126.75 93.56C126.37 93.51 124.19 91.35 123.74 91.28C123.29 91.28 122.43 92.16 121.83 92.17C121.23 92.17 120.37 91.28 119.92 91.28C119.47 91.34 117.29 93.51 116.91 93.56C116.5 93.83 121.82 94.17 121.83 94.03C121.84 94.17 127.15 93.83 126.75 93.56Z" fill="black"/>
<path d="M119.23 94.8C121.01 94.96 122.82 94.96 124.6 94.78C124.6 94.75 123.91 96.78 121.92 96.84C119.92 96.8 119.23 94.77 119.23 94.8Z" fill="black"/>
<path d="M116.53 76.14C114.29 75.09 109.79 74.18 105.48 75.6" stroke="black" stroke-width="1.4" stroke-miterlimit="10"/>
<path d="M111.01 78.65C112.153 78.65 113.08 77.7232 113.08 76.58C113.08 75.4368 112.153 74.51 111.01 74.51C109.867 74.51 108.94 75.4368 108.94 76.58C108.94 77.7232 109.867 78.65 111.01 78.65Z" fill="black"/>
<path d="M126.79 76.14C129.03 75.09 133.53 74.18 137.84 75.6" stroke="black" stroke-width="1.4" stroke-miterlimit="10"/>
<path d="M132.31 78.65C133.453 78.65 134.38 77.7232 134.38 76.58C134.38 75.4368 133.453 74.51 132.31 74.51C131.167 74.51 130.24 75.4368 130.24 76.58C130.24 77.7232 131.167 78.65 132.31 78.65Z" fill="black"/>
<path d="M88.08 116.44C81.3 96.0799 97.96 95.7999 97.25 77.9399C96.87 68.4599 100.13 44.6899 121.69 44.6899" stroke="black" stroke-width="1.4" stroke-miterlimit="10"/>
<path d="M95.67 114.56C92.52 107.25 95.37 102.12 98.37 96.64C101.96 90.06 103.3 86.79 102.98 78.91" stroke="black" stroke-width="1.4" stroke-miterlimit="10"/>
<path d="M102.32 111.9C98.08 102.13 105.85 101.48 106.73 94.38" stroke="black" stroke-width="1.4" stroke-miterlimit="10"/>
<path d="M99.74 62.5C99.74 59.44 102.4 56.56 106.06 58.13C108.95 59.37 112.28 59.12 113.39 55.36C114.6 51.25 118.69 50.01 121.7 52.79" stroke="black" stroke-width="1.4" stroke-miterlimit="10"/>
<path d="M99.67 62.72C104.21 64.23 105.96 60.67 106.05 58.13C106.19 54.39 110.27 52.78 113.56 55.01C116.76 57.18 120.25 56.7 121.68 52.78" stroke="black" stroke-width="1.4" stroke-miterlimit="10"/>
<path d="M143.63 62.5C143.63 59.44 140.97 56.56 137.31 58.13C134.42 59.37 131.09 59.12 129.98 55.36C128.77 51.25 124.68 50.01 121.67 52.79" stroke="black" stroke-width="1.4" stroke-miterlimit="10"/>
<path d="M143.7 62.72C139.16 64.23 137.41 60.67 137.32 58.13C137.18 54.39 133.1 52.78 129.81 55.01C126.61 57.18 123.12 56.7 121.69 52.78" stroke="black" stroke-width="1.4" stroke-miterlimit="10"/>
<path d="M155.61 117.14C145.71 114.83 136.43 111.69 136.22 104C136.01 96.31 136.22 95.1 136.22 95.1" stroke="black" stroke-width="1.4" stroke-miterlimit="10"/>
<path d="M155.61 117.14C161.72 98.4499 145.51 95.0999 146.12 77.9399C146.46 68.4499 143.24 44.6899 121.68 44.6899" stroke="black" stroke-width="1.4" stroke-miterlimit="10"/>
<path d="M147.69 114.85C150.88 106.79 147.99 102.12 144.99 96.64C141.4 90.06 140.06 86.79 140.38 78.91" stroke="black" stroke-width="1.4" stroke-miterlimit="10"/>
<path d="M141.24 111.58C144.72 104.63 138.72 101.32 137.15 93.58" stroke="black" stroke-width="1.4" stroke-miterlimit="10"/>
<path d="M141.05 111.9C137.02 118.35 128.66 122.37 121.69 122.37C114.72 122.37 106.36 118.35 102.33 111.9" stroke="black" stroke-width="1.4" stroke-miterlimit="10"/>
<path d="M147.69 114.85C142.27 123.59 131.04 129.08 121.68 129.08C112.32 129.08 101.09 123.59 95.67 114.85" stroke="black" stroke-width="1.4" stroke-miterlimit="10"/>
<mask id="mask0_1584_8976" style="mask-type:luminance" maskUnits="userSpaceOnUse" x="72" y="19" width="99" height="99">
<path d="M121.68 45C114.06 45 100.89 47.91 97.82 71.43C97.05 76.63 98.24 81.61 93.87 91.33C90.18 98.07 82.93 103.99 88.76 116.56L72.54 104.15L72.52 47.39L121.54 19.26L170.59 47.57L170.47 104.09L155.61 117.12C155.61 117.12 157.97 110.66 156.85 104.62C156.44 102.42 146.8 86.82 146.54 83.45C146.28 80.08 146.05 65.74 143.2 60.47C140.35 55.2 136.26 44.99 121.68 44.99V45Z" fill="white"/>
</mask>
<g mask="url(#mask0_1584_8976)">
<mask id="mask1_1584_8976" style="mask-type:luminance" maskUnits="userSpaceOnUse" x="79" y="34" width="85" height="84">
<mask id="mask2_1584_8976" style="mask-type:luminance" maskUnits="userSpaceOnUse" x="65" y="17" width="112" height="117">
<path d="M166.26 113.83L176.67 55.84L131.66 17.83L76.24 37.81L65.83 95.79L110.84 133.8L166.26 113.83Z" fill="white"/>
</mask>
<g mask="url(#mask2_1584_8976)">
<path d="M121.54 117.95C144.631 117.95 163.35 99.231 163.35 76.14C163.35 53.0489 144.631 34.33 121.54 34.33C98.449 34.33 79.73 53.0489 79.73 76.14C79.73 99.231 98.449 117.95 121.54 117.95Z" fill="white"/>
</g>
</mask>
<g mask="url(#mask1_1584_8976)">
<path d="M121.34 76.21L131.28 20.83" stroke="black" stroke-width="1.4" stroke-miterlimit="10"/>
<path d="M121.34 76.2099L111.74 20.7699" stroke="black" stroke-width="1.4" stroke-miterlimit="10"/>
<path d="M121.34 76.2099L93.36 27.3899" stroke="black" stroke-width="1.4" stroke-miterlimit="10"/>
<path d="M121.34 76.2099L78.35 39.9099" stroke="black" stroke-width="1.4" stroke-miterlimit="10"/>
<path d="M121.34 76.2099L68.53 56.7999" stroke="black" stroke-width="1.4" stroke-miterlimit="10"/>
<path d="M121.34 76.2099L65.08 76.0299" stroke="black" stroke-width="1.4" stroke-miterlimit="10"/>
<path d="M121.34 76.2098L68.41 95.2798" stroke="black" stroke-width="1.4" stroke-miterlimit="10"/>
<path d="M121.34 76.2098L78.13 112.24" stroke="black" stroke-width="1.4" stroke-miterlimit="10"/>
<path d="M121.34 76.2098L93.05 124.84" stroke="black" stroke-width="1.4" stroke-miterlimit="10"/>
<path d="M121.34 76.2098L111.4 131.59" stroke="black" stroke-width="1.4" stroke-miterlimit="10"/>
<path d="M121.34 76.2098L130.94 131.65" stroke="black" stroke-width="1.4" stroke-miterlimit="10"/>
<path d="M121.34 76.2098L149.32 125.02" stroke="black" stroke-width="1.4" stroke-miterlimit="10"/>
<path d="M121.34 76.2098L164.33 112.51" stroke="black" stroke-width="1.4" stroke-miterlimit="10"/>
<path d="M121.34 76.2098L174.15 95.6198" stroke="black" stroke-width="1.4" stroke-miterlimit="10"/>
<path d="M121.34 76.2098L177.6 76.3798" stroke="black" stroke-width="1.4" stroke-miterlimit="10"/>
<path d="M121.34 76.2099L174.27 57.1299" stroke="black" stroke-width="1.4" stroke-miterlimit="10"/>
<path d="M121.34 76.2099L164.55 40.1799" stroke="black" stroke-width="1.4" stroke-miterlimit="10"/>
<path d="M121.34 76.2099L149.62 27.5699" stroke="black" stroke-width="1.4" stroke-miterlimit="10"/>
</g>
<path d="M121.4 123.88C147.523 123.88 168.7 102.703 168.7 76.5799C168.7 50.4568 147.523 29.2799 121.4 29.2799C95.277 29.2799 74.1 50.4568 74.1 76.5799C74.1 102.703 95.277 123.88 121.4 123.88Z" stroke="black" stroke-width="1.47" stroke-miterlimit="10"/>
<path d="M121.4 118.39C144.491 118.39 163.21 99.6709 163.21 76.5799C163.21 53.4889 144.491 34.7699 121.4 34.7699C98.309 34.7699 79.59 53.4889 79.59 76.5799C79.59 99.6709 98.309 118.39 121.4 118.39Z" stroke="black" stroke-width="1.47" stroke-miterlimit="10"/>
</g>
<mask id="mask3_1584_8976" style="mask-type:luminance" maskUnits="userSpaceOnUse" x="29" y="102" width="73" height="73">
<path d="M66.13 119.24C60.65 118.94 45.58 119.95 43.37 136.91C42.98 139.56 43.56 141.8 43.73 144.04C42.86 145.33 42.3 145.19 42.14 148.12C41.97 150.65 42.26 153.64 43.99 156.21C45.79 158.89 47.12 158.33 48.65 157.97C50.44 159.19 51.73 162.02 51.93 162.5C47.9 162.28 41.17 165.55 38.93 169.35L29.77 165.42L29.75 121.92L65.92 102.23L101.29 123.8L101.2 164.56L84.41 174.2C84.41 174.2 80.23 171.06 77.17 168.57C76.99 166.97 86.59 167.03 85.24 150.09C85.05 147.66 86.66 134.41 84.61 130.61C82.56 126.81 79.67 119.98 66.14 119.25L66.13 119.24Z" fill="white"/>
</mask>
<g mask="url(#mask3_1584_8976)">
<mask id="mask4_1584_8976" style="mask-type:luminance" maskUnits="userSpaceOnUse" x="35" y="112" width="62" height="62">
<path d="M65.95 173.39C82.7505 173.39 96.37 159.771 96.37 142.97C96.37 126.17 82.7505 112.55 65.95 112.55C49.1495 112.55 35.53 126.17 35.53 142.97C35.53 159.771 49.1495 173.39 65.95 173.39Z" fill="white"/>
</mask>
<g mask="url(#mask4_1584_8976)">
<path d="M65.8 143.02L73.04 102.73" stroke="black" stroke-width="1.4" stroke-miterlimit="10"/>
<path d="M65.8 143.02L58.82 102.69" stroke="black" stroke-width="1.4" stroke-miterlimit="10"/>
<path d="M65.8 143.02L45.45 107.51" stroke="black" stroke-width="1.4" stroke-miterlimit="10"/>
<path d="M65.8 143.02L34.53 116.61" stroke="black" stroke-width="1.4" stroke-miterlimit="10"/>
<path d="M65.8 143.02L27.39 128.9" stroke="black" stroke-width="1.4" stroke-miterlimit="10"/>
<path d="M65.8 143.02L24.87 142.89" stroke="black" stroke-width="1.4" stroke-miterlimit="10"/>
<path d="M65.8 143.02L27.3 156.9" stroke="black" stroke-width="1.4" stroke-miterlimit="10"/>
<path d="M65.8 143.02L34.37 169.23" stroke="black" stroke-width="1.4" stroke-miterlimit="10"/>
<path d="M65.8 143.02L45.23 178.4" stroke="black" stroke-width="1.4" stroke-miterlimit="10"/>
<path d="M65.8 143.02L58.57 183.3" stroke="black" stroke-width="1.4" stroke-miterlimit="10"/>
<path d="M65.8 143.02L72.78 183.35" stroke="black" stroke-width="1.4" stroke-miterlimit="10"/>
<path d="M65.8 143.02L86.16 178.53" stroke="black" stroke-width="1.4" stroke-miterlimit="10"/>
<path d="M65.8 143.02L97.07 169.43" stroke="black" stroke-width="1.4" stroke-miterlimit="10"/>
<path d="M65.8 143.02L104.22 157.14" stroke="black" stroke-width="1.4" stroke-miterlimit="10"/>
<path d="M65.8 143.02L106.73 143.15" stroke="black" stroke-width="1.4" stroke-miterlimit="10"/>
<path d="M65.8 143.02L104.31 129.14" stroke="black" stroke-width="1.4" stroke-miterlimit="10"/>
<path d="M65.8 143.02L97.24 116.81" stroke="black" stroke-width="1.4" stroke-miterlimit="10"/>
<path d="M65.8 143.02L86.38 107.64" stroke="black" stroke-width="1.4" stroke-miterlimit="10"/>
</g>
<path d="M65.84 177.7C84.8441 177.7 100.25 162.294 100.25 143.29C100.25 124.286 84.8441 108.88 65.84 108.88C46.8359 108.88 31.43 124.286 31.43 143.29C31.43 162.294 46.8359 177.7 65.84 177.7Z" stroke="black" stroke-width="1.47" stroke-miterlimit="10"/>
<path d="M65.84 173.71C82.6405 173.71 96.26 160.09 96.26 143.29C96.26 126.489 82.6405 112.87 65.84 112.87C49.0395 112.87 35.42 126.489 35.42 143.29C35.42 160.09 49.0395 173.71 65.84 173.71Z" stroke="black" stroke-width="1.47" stroke-miterlimit="10"/>
</g>
<mask id="mask5_1584_8976" style="mask-type:luminance" maskUnits="userSpaceOnUse" x="142" y="101" width="72" height="72">
<path d="M177.47 119.24C182.69 119.26 197.1 120.26 199.63 136.84C200.02 139.49 200.23 140.13 201.14 142.28C202.01 143.57 201.78 145.51 201.95 148.44C202.12 150.97 199.74 155.24 197.66 155.79C195.86 158.47 195.4 159.8 194.72 160.29C193.38 161.85 193.45 162.1 193.25 162.58C197.28 162.36 202.45 165.56 204.69 169.36L213.02 164.61L213.04 123.69L177.7 101.1L142.33 123.82L142.42 164.58L157.6 172.5C157.6 172.5 159.56 168.25 165.81 166.91C166 165.29 158.79 162.62 158.38 150.11C158.3 147.67 156.96 134.43 159.01 130.63C161.06 126.83 163.93 119.22 177.48 119.27L177.47 119.24Z" fill="white"/>
</mask>
<g mask="url(#mask5_1584_8976)">
<mask id="mask6_1584_8976" style="mask-type:luminance" maskUnits="userSpaceOnUse" x="147" y="112" width="62" height="62">
<path d="M177.6 173.6C194.401 173.6 208.02 159.981 208.02 143.18C208.02 126.379 194.401 112.76 177.6 112.76C160.8 112.76 147.18 126.379 147.18 143.18C147.18 159.981 160.8 173.6 177.6 173.6Z" fill="white"/>
</mask>
<g mask="url(#mask6_1584_8976)">
<path d="M177.45 143.23L184.68 102.95" stroke="black" stroke-width="1.4" stroke-miterlimit="10"/>
<path d="M177.45 143.23L170.47 102.9" stroke="black" stroke-width="1.4" stroke-miterlimit="10"/>
<path d="M177.45 143.23L157.1 107.72" stroke="black" stroke-width="1.4" stroke-miterlimit="10"/>
<path d="M177.45 143.23L146.18 116.83" stroke="black" stroke-width="1.4" stroke-miterlimit="10"/>
<path d="M177.45 143.23L139.03 129.11" stroke="black" stroke-width="1.4" stroke-miterlimit="10"/>
<path d="M177.45 143.23L136.52 143.1" stroke="black" stroke-width="1.4" stroke-miterlimit="10"/>
<path d="M177.45 143.23L138.95 157.11" stroke="black" stroke-width="1.4" stroke-miterlimit="10"/>
<path d="M177.45 143.23L146.01 169.44" stroke="black" stroke-width="1.4" stroke-miterlimit="10"/>
<path d="M177.45 143.23L170.22 183.52" stroke="black" stroke-width="1.4" stroke-miterlimit="10"/>
<path d="M177.45 143.23L184.43 183.56" stroke="black" stroke-width="1.4" stroke-miterlimit="10"/>
<path d="M177.45 143.23L197.8 178.74" stroke="black" stroke-width="1.4" stroke-miterlimit="10"/>
<path d="M177.45 143.23L208.72 169.64" stroke="black" stroke-width="1.4" stroke-miterlimit="10"/>
<path d="M177.45 143.23L215.87 157.35" stroke="black" stroke-width="1.4" stroke-miterlimit="10"/>
<path d="M177.45 143.23L218.38 143.36" stroke="black" stroke-width="1.4" stroke-miterlimit="10"/>
<path d="M177.45 143.23L215.95 129.35" stroke="black" stroke-width="1.4" stroke-miterlimit="10"/>
<path d="M177.45 143.23L208.89 117.02" stroke="black" stroke-width="1.4" stroke-miterlimit="10"/>
<path d="M177.45 143.23L198.03 107.85" stroke="black" stroke-width="1.4" stroke-miterlimit="10"/>
</g>
<path d="M177.49 177.92C196.494 177.92 211.9 162.514 211.9 143.51C211.9 124.506 196.494 109.1 177.49 109.1C158.486 109.1 143.08 124.506 143.08 143.51C143.08 162.514 158.486 177.92 177.49 177.92Z" stroke="black" stroke-width="1.47" stroke-miterlimit="10"/>
<path d="M177.49 173.93C194.291 173.93 207.91 160.31 207.91 143.51C207.91 126.709 194.291 113.09 177.49 113.09C160.69 113.09 147.07 126.709 147.07 143.51C147.07 160.31 160.69 173.93 177.49 173.93Z" stroke="black" stroke-width="1.47" stroke-miterlimit="10"/>
</g>
<path d="M174.27 288.28H203.33" stroke="black" stroke-width="1.4" stroke-miterlimit="10"/>
<path d="M86.43 288.28H156.85" stroke="black" stroke-width="1.4" stroke-miterlimit="10"/>
<path d="M39.67 288.28H70.94" stroke="black" stroke-width="1.4" stroke-miterlimit="10"/>
<path d="M17.21 209.07V288.28H31.99" stroke="black" stroke-width="1.4" stroke-miterlimit="10"/>
<path d="M37.77 69.01L17.09 81.08V126.43" stroke="black" stroke-width="1.4" stroke-miterlimit="10"/>
<path d="M184.69 57.0599L121.48 20.1899L58.37 56.9999" stroke="black" stroke-width="1.4" stroke-miterlimit="10"/>
<path d="M225.84 122.18V81.08L205.43 69.16" stroke="black" stroke-width="1.4" stroke-miterlimit="10"/>
<path d="M211.16 288.28H226.12V209.65" stroke="black" stroke-width="1.4" stroke-miterlimit="10"/>
<path d="M234.01 297.05V76.3901L121.47 11.3101L9.40002 76.3901V297.05H234.01Z" stroke="black" stroke-width="1.4" stroke-miterlimit="10"/>
<path d="M123.96 99.41C123.72 99.22 123.01 98.7 121.83 98.7C120.74 98.7 119.94 99.22 119.7 99.41" stroke="black" stroke-width="1.4" stroke-miterlimit="10"/>
<path d="M31.99 288.28C26.53 287.27 25.21 282.27 25.21 271.78V233.66" stroke="black" stroke-width="1.4" stroke-miterlimit="10"/>
<path d="M211.16 288.28C216.62 287.27 220.23 277.62 220.23 267.13C220.23 256.64 220.23 228.84 220.23 228.84" stroke="black" stroke-width="1.4" stroke-miterlimit="10"/>
<path d="M133.09 147.2H138.09" stroke="black" stroke-width="1.4" stroke-miterlimit="10"/>
<path d="M132.4 143.29L137.1 141.58" stroke="black" stroke-width="1.4" stroke-miterlimit="10"/>
<path d="M130.42 139.86L134.25 136.65" stroke="black" stroke-width="1.4" stroke-miterlimit="10"/>
<path d="M127.39 137.32L129.89 132.99" stroke="black" stroke-width="1.4" stroke-miterlimit="10"/>
<path d="M123.67 135.96L124.53 131.04" stroke="black" stroke-width="1.4" stroke-miterlimit="10"/>
<path d="M119.7 135.96L118.84 131.04" stroke="black" stroke-width="1.4" stroke-miterlimit="10"/>
<path d="M115.98 137.32L113.48 132.99" stroke="black" stroke-width="1.4" stroke-miterlimit="10"/>
<path d="M112.95 139.86L109.12 136.65" stroke="black" stroke-width="1.4" stroke-miterlimit="10"/>
<path d="M110.97 143.29L106.27 141.58" stroke="black" stroke-width="1.4" stroke-miterlimit="10"/>
<path d="M110.28 147.2H105.28" stroke="black" stroke-width="1.4" stroke-miterlimit="10"/>
<path d="M112.95 154.53L109.12 157.74" stroke="black" stroke-width="1.4" stroke-miterlimit="10"/>
<path d="M115.98 157.07L113.48 161.4" stroke="black" stroke-width="1.4" stroke-miterlimit="10"/>
<path d="M119.7 158.43L118.84 163.35" stroke="black" stroke-width="1.4" stroke-miterlimit="10"/>
<path d="M123.67 158.43L124.53 163.35" stroke="black" stroke-width="1.4" stroke-miterlimit="10"/>
<path d="M127.39 157.07L129.89 161.4" stroke="black" stroke-width="1.4" stroke-miterlimit="10"/>
<path d="M130.42 154.53L134.25 157.74" stroke="black" stroke-width="1.4" stroke-miterlimit="10"/>
<path d="M132.4 151.1L137.1 152.81" stroke="black" stroke-width="1.4" stroke-miterlimit="10"/>
<path d="M110.97 151.1L106.27 152.81" stroke="black" stroke-width="1.4" stroke-miterlimit="10"/>
<mask id="mask7_1584_8976" style="mask-type:luminance" maskUnits="userSpaceOnUse" x="123" y="148" width="48" height="52">
<path d="M164.02 193.08L163.41 193.15C163.41 193.15 162.75 194.87 163.81 195.07C164.87 195.27 165.96 195.6 165.96 195.6C165.96 195.6 163.46 196.13 161.42 197.32C159.74 198.31 158.18 199.74 158.18 199.74L139.94 176.33L146.69 174.97L123.48 149.61L125.66 148.21L164.44 177.9L170.22 185.98L161.77 190.21" fill="white"/>
</mask>
<g mask="url(#mask7_1584_8976)">
<path d="M211.59 246.07L181.65 201.42L179.37 213.83L156.33 186.04L166.73 184.45L125.67 149.79L152.01 177.89L143.14 178.28L185.01 227.63L186.25 218.09L211.59 246.07Z" fill="url(#paint3_linear_1584_8976)" stroke="black" stroke-width="1.4" stroke-miterlimit="10"/>
</g>
<path d="M28.7 87.89L17.63 81.49" stroke="black" stroke-width="1.4" stroke-miterlimit="10"/>
<path d="M214.9 87.42L225.16 81.49" stroke="black" stroke-width="1.4" stroke-miterlimit="10"/>
<path d="M76.7 59.42L67.64 51.3" stroke="black" stroke-width="1.4" stroke-miterlimit="10"/>
<path d="M166.12 59.9L175.48 51.73" stroke="black" stroke-width="1.4" stroke-miterlimit="10"/>
<mask id="mask8_1584_8976" style="mask-type:luminance" maskUnits="userSpaceOnUse" x="169" y="198" width="47" height="52">
<path d="M169.45 211.06C169.45 211.06 172.61 210.32 176.34 207.35C177.27 206.61 179.81 205.68 179.81 205.68L180.62 198.14L186.63 203.58L215.16 246.05L208.87 249.3L187.95 226.58L184.64 232.49L169.45 211.04V211.06Z" fill="white"/>
</mask>
<g mask="url(#mask8_1584_8976)">
<path d="M210.89 246.06L181.65 201.42L179.37 213.83L156.33 186.04L166.73 184.45L128.01 149.79L152.01 177.89L143.14 178.28L185.01 227.63L186.25 218.09L210.89 246.06Z" fill="url(#paint4_linear_1584_8976)" stroke="black" stroke-width="1.4" stroke-miterlimit="10"/>
</g>
<path d="M104.25 179.65C103.09 176.78 106.46 171.18 109.66 170.92C111.33 177.57 108.71 180.24 105.72 181.34C102.37 182.37 102.09 182.51 100.23 182.79C98.33 183.07 95.3 182.26 94.45 182.6C93.6 182.94 92.97 185.52 91.42 186.35C89.87 187.18 87.31 187.4 86.29 188.6C85.27 189.8 81.75 197.25 81.75 197.25L78.61 196.02C78.61 196.02 79.5 192.51 82.07 189.46C84.65 186.41 84.94 185.09 88.68 184.02C88.56 180.77 87.31 176.65 85.54 174.38C84.21 172.15 83.45 168.28 87.85 164.82C91.55 168.8 88.66 174.04 88.66 174.04L88.95 174.72C88.95 174.72 95.11 173.45 95.59 172.74C96.07 172.03 95.99 169.11 95.99 169.11C95.99 169.11 92.15 167.44 94.55 162.6C97.58 163.62 98.3 164.7 98.38 167.06C99.28 166.73 99.56 166.57 99.56 166.57C99.56 166.57 99.67 163.17 100.08 162.05C100.49 160.93 108.42 156.49 109.47 155.75C110.93 152.71 112.94 150.81 118.34 150.46C116.45 155.08 114.09 157.35 110.7 157.38C108.37 157.96 102.06 163.07 102.06 163.07L102.13 165.68C102.13 165.68 103.22 165.32 103.89 164.92C105.22 164.12 107.77 162.07 112.71 164.96C111.02 167.55 107.4 168.8 104.14 167.07C103.09 167.42 102.24 167.91 102.24 167.91C102.24 167.91 100.06 169.17 98.25 169.58C98.25 170.15 98.35 171.25 98.31 172.92C98.28 174.21 97.97 174.68 94.49 175.79C91.01 176.9 90.76 176.95 90.76 176.95C90.76 176.95 91.11 179.95 91.44 181.18C92.88 179.89 92.96 179.53 94.18 179.48C95.4 179.43 97.43 181.14 100.19 180.68C102.96 180.22 104.24 179.64 104.24 179.64L104.25 179.65Z" fill="url(#paint5_linear_1584_8976)" stroke="black" stroke-width="1.4" stroke-miterlimit="10"/>
<path d="M71.61 209.55L68.3 207.77C68.3 207.77 66.27 210.69 65.51 211.28C65.01 210.16 64.81 208.54 63.92 208.56C63.03 208.58 62.48 208.9 62.05 207.28C61.62 205.66 61.33 205.04 61.33 205.04C61.33 205.04 64.29 199.77 57.59 195.58C55 201.26 57.73 204.79 59.26 205.8C60.27 207.34 60.27 208.04 60.12 209.75C58.59 210.83 57.63 211.16 57.28 213.37C57.06 214.73 58.42 218.33 55.78 221.04C53.32 222.28 49.14 224.44 49.14 224.44C49.55 221.73 48.03 220.13 48.03 220.13C48.03 220.13 48.76 217.43 47.87 215.79C46.98 214.15 43.62 211.01 43.62 211.01C41.78 216.65 42.43 219.22 46.23 221.17C48.13 223.16 45.89 226.35 44.74 228.21C43.59 230.07 43.63 232.19 42.54 233.1C41.45 234.01 38.69 235.32 37.69 237.87C36.69 240.41 33.69 244.92 33.44 246.43C36.83 245.19 41.44 239.01 42.08 237.77C42.72 236.53 45.88 235.99 47.3 234.21C48.72 232.43 49.33 229.55 51.57 228.17C53.81 226.79 55.68 225.46 57.9 225.24C60.12 225.02 62.25 225.03 63.52 225.31C64.79 225.59 67.32 228.11 70.25 226.3C73.18 224.49 76.32 221.68 76.81 221.48C73.76 219.81 70.15 218.73 67.81 221.28C65.46 223.83 65.26 223.95 63.69 223.4C62.12 222.85 60.6 222.86 59.51 222.72C58.61 222.61 58.06 222.39 58.06 222.39C58.06 222.39 60.53 218.98 60.53 217.11C60.53 215.24 60.66 212.6 62.35 211.79C63.3 214.76 63.95 215.75 64.86 215.58C65.77 215.41 71.62 209.56 71.62 209.56L71.61 209.55Z" fill="url(#paint6_linear_1584_8976)" stroke="black" stroke-width="1.4" stroke-miterlimit="10"/>
<path d="M121.44 29.2799V20.1899" stroke="black" stroke-width="1.4" stroke-miterlimit="10"/>
<path d="M157.78 143.87L159.27 142.33C159.92 141.86 160.7 141.61 161.5 141.61H185.08C186.03 141.61 186.94 141.96 187.65 142.61L190.42 145.25" stroke="black" stroke-width="1.4" stroke-miterlimit="10"/>
<path d="M139.85 122.99C142.27 129.81 143.11 137.2 143.11 142.12" stroke="black" stroke-width="1.4" stroke-miterlimit="10"/>
<path d="M103.52 122.99C101.1 129.81 100.26 137.2 100.26 142.12" stroke="black" stroke-width="1.4" stroke-miterlimit="10"/>
<path d="M145.26 118.75C145.26 118.75 146.92 121.19 148.59 124.47" stroke="black" stroke-width="1.4" stroke-miterlimit="10"/>
<path d="M98.36 118.75C98.36 118.75 96.7 121.19 95.03 124.47" stroke="black" stroke-width="1.4" stroke-miterlimit="10"/>
<path d="M109.71 126.99C109.71 126.99 108.97 129.85 108.52 133.5" stroke="black" stroke-width="1.4" stroke-miterlimit="10"/>
<path d="M133.29 126.99C133.29 126.99 134.03 129.85 134.48 133.5" stroke="black" stroke-width="1.4" stroke-miterlimit="10"/>
</g>
<defs>
<linearGradient id="paint0_linear_1584_8976" x1="116.51" y1="6.57997" x2="125.62" y2="305.08" gradientUnits="userSpaceOnUse">
<stop stop-color="#FFCA7D"/>
<stop offset="0.05" stop-color="#FBC77B"/>
<stop offset="1" stop-color="#C18F59"/>
</linearGradient>
<linearGradient id="paint1_linear_1584_8976" x1="116.28" y1="0.159976" x2="125.76" y2="310.68" gradientUnits="userSpaceOnUse">
<stop stop-color="#FFCA7D"/>
<stop offset="0.05" stop-color="#FBC77B"/>
<stop offset="1" stop-color="#C18F59"/>
</linearGradient>
<linearGradient id="paint2_linear_1584_8976" x1="122.03" y1="12.8" x2="122.03" y2="311.19" gradientUnits="userSpaceOnUse">
<stop stop-color="#FFCA7D"/>
<stop offset="0.05" stop-color="#FBC77B"/>
<stop offset="1" stop-color="#C18F59"/>
</linearGradient>
<linearGradient id="paint3_linear_1584_8976" x1="168.63" y1="152.54" x2="168.63" y2="233.45" gradientUnits="userSpaceOnUse">
<stop stop-color="#FFDD9C"/>
<stop offset="0.2" stop-color="#FAD796"/>
<stop offset="0.46" stop-color="#ECC688"/>
<stop offset="0.76" stop-color="#D6AA70"/>
<stop offset="1" stop-color="#C18F59"/>
</linearGradient>
<linearGradient id="paint4_linear_1584_8976" x1="169.45" y1="200.61" x2="169.45" y2="233.01" gradientUnits="userSpaceOnUse">
<stop stop-color="#FFDD9C"/>
<stop offset="0.2" stop-color="#FAD796"/>
<stop offset="0.46" stop-color="#ECC688"/>
<stop offset="0.76" stop-color="#D6AA70"/>
<stop offset="1" stop-color="#C18F59"/>
</linearGradient>
<linearGradient id="paint5_linear_1584_8976" x1="98.48" y1="152.97" x2="98.48" y2="233.1" gradientUnits="userSpaceOnUse">
<stop stop-color="#FFDD9C"/>
<stop offset="0.2" stop-color="#FAD796"/>
<stop offset="0.46" stop-color="#ECC688"/>
<stop offset="0.76" stop-color="#D6AA70"/>
<stop offset="1" stop-color="#C18F59"/>
</linearGradient>
<linearGradient id="paint6_linear_1584_8976" x1="55.11" y1="180.3" x2="55.11" y2="241.86" gradientUnits="userSpaceOnUse">
<stop stop-color="#FFDD9C"/>
<stop offset="0.2" stop-color="#FAD796"/>
<stop offset="0.46" stop-color="#ECC688"/>
<stop offset="0.76" stop-color="#D6AA70"/>
<stop offset="1" stop-color="#C18F59"/>
</linearGradient>
<clipPath id="clip0_1584_8976">
<rect width="244.06" height="307.07" fill="white"/>
</clipPath>
</defs>
</svg>
