<svg width="35" height="41" viewBox="0 0 35 41" fill="none" xmlns="http://www.w3.org/2000/svg">
<path id="Vector" d="M17.0458 0.158768L0.374842 9.78355C0.143114 9.91828 0.000305176 10.1662 0.000305176 10.4329V29.6825C0.000305176 29.952 0.143114 30.1999 0.374842 30.3319L17.0431 39.9567C17.2748 40.0914 17.5631 40.0914 17.7949 39.9567L34.4631 30.3319C34.6948 30.1972 34.8376 29.9493 34.8376 29.6825V10.4329C34.8376 10.1635 34.6948 9.91558 34.4631 9.78355L17.7949 0.158768C17.5631 0.0240426 17.2748 0.0240426 17.0431 0.158768H17.0458ZM18.2287 21.2137C19.4735 22.2349 20.3681 23.6118 20.7938 25.1989C20.8585 25.4414 20.9097 25.6839 20.9501 25.9264C20.969 26.0449 20.8316 26.1258 20.74 26.0476C19.3253 24.8809 18.3311 23.2211 18.0185 21.3349C17.9996 21.2164 18.1371 21.1355 18.2287 21.2137ZM18.0185 18.7778C18.3311 16.8944 19.3226 15.2399 20.7346 14.0732C20.8262 13.9978 20.9663 14.0759 20.9447 14.1945C20.6403 15.9998 19.7026 17.6866 18.2287 18.8991C18.1371 18.9745 17.9969 18.8964 18.0185 18.7778ZM18.8269 20.179C18.7137 20.1359 18.7137 19.9769 18.8269 19.9365C19.7106 19.605 20.6268 19.4461 21.5375 19.4461C22.4483 19.4461 23.394 19.6158 24.2644 19.9392C24.3775 19.9823 24.3775 20.1413 24.2644 20.1817C22.548 20.8203 20.616 20.8526 18.8295 20.1817L18.8269 20.179ZM20.2442 18.5623C20.1337 18.5784 20.0609 18.4491 20.131 18.3629C21.233 16.9779 21.8824 15.2938 22.0145 13.5505C22.0306 13.3268 22.168 13.1328 22.3701 13.0358C23.3752 12.5616 24.4961 12.2921 25.679 12.2921C26.8619 12.2921 27.9397 12.5481 28.9286 13.0062C29.1684 13.1167 29.3112 13.3673 29.2869 13.6286C29.1845 14.728 28.845 15.8031 28.2765 16.7893C27.6837 17.8132 26.8915 18.6512 25.9781 19.2844C25.7949 19.411 25.555 19.4326 25.3556 19.3356C23.7821 18.5784 21.9983 18.2982 20.2469 18.5596L20.2442 18.5623ZM28.9393 11.9446C27.9316 11.5377 26.8295 11.3113 25.679 11.3113C24.4584 11.3113 23.297 11.5646 22.2408 12.0173C22.1249 12.0685 21.9929 11.993 21.9767 11.8664C21.842 10.7239 21.4809 9.59224 20.8693 8.5333C20.3007 7.5498 19.5625 6.70372 18.6948 6.02471C18.5682 5.92501 18.5978 5.72292 18.7487 5.66633C19.0074 5.56664 19.2714 5.48042 19.5409 5.40767C21.5456 4.87146 23.6366 5.1463 25.4338 6.18369C27.231 7.22108 28.5163 8.89437 29.0525 10.8991C29.1253 11.1712 29.1819 11.4461 29.225 11.7209C29.2492 11.8799 29.0902 12.0065 28.9393 11.9473V11.9446ZM20.0178 9.0264C20.6106 10.0503 20.9393 11.1551 21.031 12.2652C21.0498 12.4888 20.9474 12.7044 20.7642 12.831C19.3199 13.8145 18.1856 15.2211 17.5362 16.8674C17.4958 16.9725 17.3476 16.9725 17.3045 16.8674C16.6551 15.2184 15.5207 13.8145 14.0764 12.831C13.8932 12.7044 13.7908 12.4888 13.8097 12.2652C13.9013 11.1578 14.23 10.053 14.8228 9.0264C15.394 8.04021 16.1566 7.2076 17.0593 6.56631C17.2748 6.41541 17.5631 6.41541 17.7787 6.56631C18.684 7.20491 19.4466 8.03751 20.0151 9.0264H20.0178ZM16.0165 20.179C14.2273 20.8499 12.2927 20.8203 10.5736 20.179C10.4604 20.1359 10.4604 19.9769 10.5736 19.9365C10.8053 19.8502 11.0424 19.7748 11.2822 19.7101C11.9505 19.5296 12.6295 19.4434 13.3058 19.4434C14.23 19.4434 15.1461 19.6104 16.0192 19.9392C16.1323 19.9823 16.1323 20.1413 16.0192 20.1817L16.0165 20.179ZM13.8959 14.1945C13.877 14.0759 14.0145 13.9951 14.1061 14.0732C15.518 15.2399 16.5096 16.8971 16.8221 18.7778C16.841 18.8964 16.7036 18.9772 16.612 18.8991C15.1381 17.6866 14.2004 15.9998 13.8959 14.1945ZM16.612 21.2137C16.7036 21.1382 16.841 21.2164 16.8221 21.3349C16.5096 23.2211 15.5153 24.8782 14.1007 26.0476C14.0091 26.1231 13.869 26.0449 13.8905 25.9264C13.9309 25.6839 13.9821 25.4414 14.0468 25.1989C14.4725 23.6145 15.3671 22.2349 16.612 21.2137ZM16.1485 6.02471C15.2809 6.70642 14.5426 7.5498 13.974 8.5333C13.3624 9.58954 13.0013 10.7239 12.8666 11.8664C12.8504 11.993 12.7211 12.0685 12.6025 12.0173C11.5463 11.5646 10.3849 11.3113 9.16434 11.3113C8.01108 11.3113 6.91172 11.5377 5.90398 11.9446C5.75309 12.0065 5.59411 11.8799 5.61836 11.7182C5.66147 11.4434 5.71806 11.1685 5.79081 10.8964C6.32702 8.89167 7.6123 7.21838 9.40954 6.18099C11.2068 5.14361 13.2977 4.86877 15.3024 5.40497C15.5719 5.47772 15.8386 5.56395 16.0946 5.66365C16.2455 5.72293 16.2751 5.92231 16.1485 6.02201V6.02471ZM5.91476 13.0062C6.90364 12.5481 8.003 12.2921 9.16434 12.2921C10.3257 12.2921 11.4708 12.5589 12.4732 13.0358C12.6753 13.1301 12.8127 13.3268 12.8289 13.5505C12.9582 15.2911 13.6076 16.9725 14.7069 18.3575C14.777 18.4464 14.7042 18.573 14.5911 18.5569C13.4163 18.379 12.2091 18.4437 11.0262 18.7617C10.4873 18.9045 9.97269 19.0985 9.48229 19.3356C9.2802 19.4326 9.04039 19.411 8.85716 19.2844C7.94642 18.6539 7.15423 17.8159 6.56413 16.792C5.99559 15.8058 5.65608 14.7307 5.55369 13.6313C5.52944 13.37 5.67494 13.1193 5.91206 13.0089L5.91476 13.0062ZM5.71806 17.2824C6.32702 18.3386 7.12459 19.217 8.04342 19.9041C8.14581 19.9796 8.14581 20.1305 8.04342 20.2059C7.11112 20.9065 6.31893 21.793 5.71806 22.8331C5.14413 23.83 4.78845 24.8944 4.63756 25.9695C4.616 26.1312 4.42469 26.2039 4.29805 26.1042C2.53045 24.6788 1.39876 22.499 1.39876 20.0577C1.39876 17.6165 2.53045 15.4366 4.29805 14.0112C4.42469 13.9088 4.61331 13.9843 4.63756 14.146C4.78845 15.2211 5.14413 16.2854 5.71806 17.2824ZM5.56177 26.4895C5.66147 25.4063 5.98751 24.3258 6.56683 23.3235C7.14884 22.3157 7.93025 21.4696 8.85716 20.8284C9.04308 20.699 9.28289 20.6802 9.48498 20.7772C10.6733 21.3511 11.9828 21.6529 13.3085 21.6529C13.7342 21.6529 14.1627 21.6205 14.5911 21.5586C14.7016 21.5424 14.777 21.669 14.7069 21.758C13.9686 22.6849 13.419 23.7654 13.1037 24.9456C12.9609 25.4818 12.8693 26.0261 12.8289 26.5704C12.8127 26.794 12.6753 26.9907 12.4732 27.085C11.4708 27.5592 10.3499 27.826 9.16972 27.826C7.98953 27.826 6.91442 27.57 5.92553 27.1146C5.68572 27.0042 5.54291 26.7536 5.56716 26.4922L5.56177 26.4895ZM5.90937 28.1736C6.91711 28.5805 8.01378 28.8041 9.16434 28.8041C10.3823 28.8041 11.5436 28.5508 12.5998 28.0981C12.7157 28.0469 12.8477 28.1224 12.8612 28.249C13.0013 29.4077 13.3732 30.5367 13.974 31.5795C14.548 32.5764 15.2917 33.4144 16.1458 34.0853C16.2725 34.185 16.2428 34.3871 16.0919 34.4464C13.974 35.2629 11.522 35.1551 9.40954 33.9345C7.29704 32.7138 5.97404 30.6418 5.62375 28.3999C5.5995 28.2383 5.75847 28.1116 5.90937 28.1736ZM14.8228 31.0917C14.2408 30.084 13.8986 28.9846 13.807 27.8583C13.7881 27.6347 13.8878 27.4164 14.0737 27.2898C15.5207 26.3063 16.6551 24.8998 17.3045 23.2507C17.3449 23.1456 17.4931 23.1456 17.5362 23.2507C18.1856 24.8998 19.3226 26.3063 20.7669 27.2898C20.9528 27.4164 21.0525 27.6347 21.0337 27.8583C20.9393 28.9846 20.5971 30.084 20.0178 31.0917C19.4385 32.0941 18.6679 32.9186 17.7787 33.5437C17.5631 33.6946 17.2748 33.6946 17.0593 33.5437C16.1701 32.9159 15.3994 32.0941 14.8201 31.0917H14.8228ZM18.6948 34.0853C19.549 33.4171 20.2927 32.5764 20.8666 31.5795C21.4675 30.5394 21.8393 29.4077 21.9794 28.249C21.9956 28.1224 22.1249 28.0469 22.2408 28.0981C23.297 28.5508 24.4557 28.8041 25.6763 28.8041C26.8269 28.8041 27.9262 28.5778 28.9313 28.1736C29.0822 28.1116 29.2411 28.2383 29.2169 28.3999C28.8666 30.6418 27.5436 32.7138 25.4311 33.9345C23.3186 35.1551 20.8639 35.2629 18.746 34.4464C18.5951 34.3871 18.5655 34.1877 18.6921 34.0853H18.6948ZM28.9205 27.112C27.9316 27.5673 26.8349 27.8233 25.6763 27.8233C24.5177 27.8233 23.3752 27.5565 22.3728 27.0823C22.1707 26.9853 22.0333 26.7886 22.0172 26.5677C21.9767 26.0234 21.8851 25.4818 21.7423 24.9429C21.4271 23.7627 20.8774 22.6849 20.1391 21.7553C20.069 21.6663 20.1445 21.5397 20.2549 21.5559C20.6807 21.6205 21.1091 21.6502 21.5375 21.6502C22.8605 21.6502 24.1674 21.3484 25.3556 20.7772C25.5577 20.6802 25.7975 20.699 25.9808 20.8284C26.8942 21.4616 27.6864 22.2996 28.2765 23.3235C28.8558 24.3258 29.1819 25.4036 29.2816 26.4895C29.3058 26.7509 29.1603 27.0015 28.9232 27.112H28.9205ZM29.1253 22.8358C28.5163 21.7795 27.716 20.8984 26.7945 20.2113C26.6921 20.1359 26.6921 19.985 26.7945 19.9068C27.716 19.2197 28.5136 18.3386 29.1253 17.2797C29.6911 16.2989 30.0549 15.2372 30.2112 14.1487C30.2354 13.987 30.424 13.9142 30.5507 14.0166C32.3156 15.442 33.4446 17.6192 33.4446 20.0577C33.4446 22.4963 32.3129 24.6788 30.5453 26.1042C30.4186 26.2066 30.23 26.1312 30.2058 25.9695C30.0549 24.8944 29.6992 23.83 29.1253 22.8331V22.8358ZM30.2031 11.6428C30.1546 11.3087 30.0872 10.9745 29.9983 10.6431C29.7073 9.55991 29.2223 8.56563 28.5756 7.69261C28.5217 7.62255 28.6052 7.53094 28.6807 7.57405L32.9596 10.0449C33.1428 10.15 33.1428 10.4141 32.9596 10.5191L30.645 11.8556C30.4644 11.9607 30.2354 11.8476 30.2031 11.6401V11.6428ZM19.2849 4.4592C18.9535 4.54812 18.6302 4.6559 18.3176 4.77984C18.1236 4.85799 17.9107 4.71517 17.9107 4.505V1.83205C17.9107 1.62188 18.1397 1.48984 18.323 1.59493L22.6019 4.06581C22.6773 4.10892 22.6396 4.22478 22.5507 4.2167C21.4702 4.09275 20.3654 4.16819 19.2849 4.4592ZM16.9299 4.505C16.9299 4.71517 16.7197 4.85799 16.523 4.77984C16.2105 4.6559 15.8871 4.54812 15.5557 4.4592C14.4725 4.16819 13.3705 4.09275 12.29 4.2167C12.201 4.22748 12.1633 4.11162 12.2388 4.06581L16.5177 1.59493C16.7009 1.48984 16.9299 1.62188 16.9299 1.83205V4.505ZM4.64295 11.6455C4.61331 11.8529 4.38427 11.9661 4.20105 11.861L1.88107 10.5218C1.69785 10.4168 1.69785 10.1527 1.88107 10.0476L6.17343 7.56867C6.24888 7.52556 6.32971 7.61716 6.27851 7.68722C5.41088 8.85663 4.85042 10.2228 4.64295 11.6481V11.6455ZM3.71334 12.7098C3.89387 12.8149 3.91273 13.0682 3.74837 13.1975C2.61937 14.0894 1.71671 15.2561 1.13739 16.5899C1.10236 16.6707 0.983802 16.6465 0.983802 16.5576V11.605C0.983802 11.3949 1.21283 11.2628 1.39606 11.3679L3.71604 12.7071L3.71334 12.7098ZM1.13469 23.5256C1.77329 24.9968 2.80529 26.2605 4.09866 27.182L1.39067 28.7448C1.20745 28.8499 0.978413 28.7179 0.978413 28.5077V23.5579C0.978413 23.469 1.09697 23.4447 1.132 23.5256H1.13469ZM4.58906 28.0308C4.73995 29.6124 5.31927 31.1375 6.27582 32.4282C6.32702 32.4983 6.24618 32.5899 6.17073 32.5468L1.88107 30.0705C1.69785 29.9654 1.69785 29.7014 1.88107 29.5963L4.58906 28.0335V28.0308ZM13.2789 35.9526C14.3917 35.9526 15.4937 35.7398 16.523 35.3302C16.717 35.2521 16.9299 35.3949 16.9299 35.6051V38.2807C16.9299 38.4909 16.7009 38.6229 16.5177 38.5178L12.2334 36.0443C12.1579 36.0011 12.1957 35.8853 12.2819 35.8934C12.6133 35.9311 12.9447 35.9499 13.2762 35.9499L13.2789 35.9526ZM17.9107 35.6051C17.9107 35.3949 18.1236 35.2521 18.3176 35.3302C19.3469 35.7398 20.4489 35.9526 21.5618 35.9526C21.8932 35.9526 22.2246 35.9338 22.5561 35.896C22.6423 35.8853 22.6827 36.0011 22.6046 36.0469L18.3176 38.5205C18.1344 38.6256 17.9053 38.4936 17.9053 38.2834V35.6051H17.9107ZM30.1977 28.47C30.2273 28.2625 30.4564 28.1493 30.6396 28.2544L32.9596 29.5936C33.1428 29.6987 33.1428 29.9628 32.9596 30.0678L28.6672 32.5468C28.5918 32.5899 28.5109 32.4983 28.5621 32.4282C29.4324 31.2561 29.9902 29.8927 30.2004 28.4673L30.1977 28.47ZM31.13 27.4057C30.9495 27.3006 30.9306 27.0473 31.095 26.918C32.224 26.0261 33.1266 24.862 33.7059 23.5256C33.741 23.4447 33.8595 23.469 33.8595 23.5579V28.5104C33.8595 28.7206 33.6305 28.8526 33.4473 28.7475L31.1273 27.4083L31.13 27.4057ZM33.7059 16.5926C33.1266 15.2561 32.224 14.0921 31.095 13.2002C30.9306 13.0709 30.9468 12.8149 31.13 12.7125L33.45 11.3733C33.6332 11.2682 33.8622 11.4003 33.8622 11.6104V16.5629C33.8622 16.6519 33.7437 16.6761 33.7086 16.5953L33.7059 16.5926Z" fill="url(#paint0_radial_422_8385)"/>
<defs>
<radialGradient id="paint0_radial_422_8385" cx="0" cy="0" r="1" gradientUnits="userSpaceOnUse" gradientTransform="translate(17.4203 20.0577) scale(18.7538 18.7538)">
<stop stop-color="#FBE9D5"/>
<stop offset="0.49" stop-color="#EDB669"/>
<stop offset="1" stop-color="#C18F59"/>
</radialGradient>
</defs>
</svg>
