<svg width="20" height="23" viewBox="0 0 20 23" fill="none" xmlns="http://www.w3.org/2000/svg">
<path d="M2.99207 7.81281C3.05254 8.46213 3.25307 9.09713 3.58887 9.67961C3.9374 10.2844 4.4037 10.7777 4.94321 11.1517C5.05143 11.2265 5.19307 11.2392 5.31243 11.182C5.60207 11.0419 5.90605 10.9273 6.22434 10.843C6.9214 10.6568 7.63597 10.6186 8.32985 10.722C8.3951 10.7316 8.43966 10.6568 8.39829 10.6042C7.74897 9.78623 7.36702 8.79316 7.28903 7.76507C7.27948 7.63298 7.19832 7.51839 7.07896 7.4611C6.48534 7.181 5.82329 7.02185 5.12463 7.02185C4.42598 7.02185 3.78939 7.17304 3.20532 7.44359C3.06368 7.50884 2.97933 7.65685 2.99366 7.81122L2.99207 7.81281Z" fill="#C18F59"/>
<path d="M9.21631 3.11006C9.06353 3.05118 8.90757 3.00025 8.74842 2.95728C7.56437 2.64058 6.32939 2.80291 5.26788 3.41562C4.20637 4.02834 3.44723 5.01664 3.13053 6.2007C3.08756 6.36143 3.05414 6.52376 3.02868 6.68609C3.01435 6.77999 3.10825 6.85479 3.19737 6.81978C3.79258 6.57947 4.4435 6.44578 5.12305 6.44578C5.84399 6.44578 6.52991 6.59538 7.15377 6.86275C7.2222 6.89298 7.30018 6.84842 7.30973 6.77363C7.38931 6.09884 7.60256 5.43042 7.96383 4.80498C8.29963 4.22409 8.73569 3.72437 9.24814 3.32173C9.32294 3.26284 9.30544 3.14348 9.21631 3.11006Z" fill="#C18F59"/>
<path d="M7.91449 15.0763C7.90335 15.1463 7.98451 15.194 8.03862 15.1479C8.87415 14.4588 9.4614 13.4784 9.64601 12.3644C9.65715 12.2944 9.57598 12.2466 9.52187 12.2928C8.78661 12.896 8.25825 13.7092 8.00679 14.6466C7.9686 14.7898 7.93836 14.933 7.91449 15.0763Z" fill="#C18F59"/>
<path d="M5.26787 19.8062C6.51558 20.5271 7.96541 20.5908 9.21471 20.1086C9.30383 20.0736 9.32134 19.9558 9.24654 19.8953C8.74205 19.5006 8.3028 19.0041 7.96382 18.4152C7.60892 17.8009 7.38929 17.1325 7.30654 16.4482C7.29699 16.3734 7.2206 16.3288 7.15217 16.3591C6.52831 16.6264 5.84398 16.776 5.12304 16.776C4.44349 16.776 3.79417 16.6423 3.20055 16.4036C3.11142 16.367 3.01753 16.4418 3.03185 16.5373C3.23874 17.8614 4.02015 19.0852 5.26787 19.8062Z" fill="#C18F59"/>
<path d="M3.20847 15.7765C3.79253 16.0455 4.44026 16.1967 5.1246 16.1967C5.80893 16.1967 6.48371 16.0391 7.07574 15.759C7.1951 15.7017 7.27626 15.5856 7.28581 15.4551C7.30968 15.1336 7.36379 14.8137 7.44814 14.4954C7.63434 13.7983 7.959 13.1618 8.39507 12.6127C8.43644 12.5602 8.39188 12.4854 8.32663 12.4949C8.07518 12.5331 7.82214 12.5506 7.56909 12.5506C6.78609 12.5506 6.01423 12.3724 5.3108 12.0334C5.19144 11.9761 5.0498 11.9873 4.93999 12.0636C4.39252 12.444 3.93099 12.9437 3.58724 13.5373C3.24507 14.1294 3.0525 14.766 2.99362 15.4073C2.97929 15.5617 3.06523 15.7097 3.20528 15.7749L3.20847 15.7765Z" fill="#C18F59"/>
<path d="M10.2126 19.5754C10.7378 19.2046 11.193 18.7192 11.5352 18.1272C11.8789 17.532 12.081 16.8827 12.1351 16.2174C12.1463 16.0853 12.0874 15.9564 11.9776 15.8816C11.123 15.3007 10.453 14.47 10.0694 13.496C10.0455 13.4339 9.95801 13.4339 9.93255 13.496C9.549 14.47 8.8774 15.3007 8.02437 15.8816C7.91456 15.9564 7.85568 16.0853 7.86682 16.2174C7.92252 16.8827 8.12464 17.532 8.4668 18.1272C8.80897 18.7192 9.26413 19.2062 9.78931 19.5754C9.91663 19.6646 10.0869 19.6646 10.2142 19.5754H10.2126Z" fill="#C18F59"/>
<path d="M2.24892 8.04042C1.20492 8.88231 0.536499 10.1698 0.536499 11.6117C0.536499 13.0535 1.20492 14.341 2.24892 15.1829C2.32372 15.2434 2.43512 15.1989 2.44945 15.1034C2.53857 14.4684 2.74864 13.8397 3.08763 13.2509C3.44252 12.6366 3.91041 12.1114 4.46106 11.6992C4.52154 11.6546 4.52154 11.5655 4.46106 11.521C3.91837 11.1151 3.4473 10.5947 3.08763 9.97246C2.74864 9.38362 2.53857 8.75499 2.44945 8.11999C2.43671 8.0245 2.32372 7.98154 2.24892 8.04042Z" fill="#C18F59"/>
<path d="M9.5219 10.9258C9.57601 10.9703 9.65876 10.9242 9.64603 10.8541C9.46142 9.7417 8.87576 8.76454 8.04183 8.07543C7.98772 8.03087 7.90496 8.07703 7.91769 8.14705C8.09753 9.21334 8.65136 10.2096 9.5219 10.9258Z" fill="#C18F59"/>
<path d="M10.4783 10.9257C11.3489 10.2096 11.9027 9.21329 12.0825 8.14701C12.0937 8.07698 12.0125 8.02924 11.9584 8.07539C11.1245 8.7645 10.5388 9.74325 10.3542 10.8541C10.343 10.9241 10.4242 10.9719 10.4783 10.9257Z" fill="#C18F59"/>
<path d="M14.04 11.6817C14.1069 11.6562 14.1069 11.5623 14.04 11.5384C13.526 11.3475 12.9801 11.2472 12.4295 11.2472C11.8788 11.2472 11.3505 11.3427 10.8285 11.5368C10.7616 11.5623 10.7616 11.6562 10.8285 11.6801C11.8836 12.0763 13.0247 12.0573 14.0384 11.6801L14.04 11.6817Z" fill="#C18F59"/>
<path d="M10.3526 12.366C10.5372 13.4801 11.1245 14.4588 11.96 15.1495C12.0141 15.1941 12.0968 15.1479 12.0841 15.0779C12.0602 14.9347 12.03 14.7914 11.9918 14.6482C11.7404 13.7108 11.212 12.8976 10.4767 12.2944C10.4226 12.2499 10.3415 12.296 10.3526 12.366Z" fill="#C18F59"/>
<path d="M9.78769 3.64155C9.25295 4.01873 8.80257 4.51049 8.46677 5.09456C8.11665 5.69932 7.92249 6.35182 7.86838 7.00751C7.85724 7.1396 7.91771 7.26692 8.02593 7.34172C8.87896 7.9226 9.54897 8.75335 9.93251 9.72574C9.95639 9.7878 10.0439 9.7878 10.0694 9.72574C10.4529 8.75176 11.1229 7.9226 11.976 7.34172C12.0842 7.26692 12.1447 7.1396 12.1335 7.00751C12.0794 6.35341 11.8852 5.70091 11.5351 5.09456C11.1977 4.51208 10.7473 4.02032 10.2142 3.64155C10.0869 3.55243 9.9166 3.55243 9.78928 3.64155H9.78769Z" fill="#C18F59"/>
<path d="M6.37396 11.4032C6.23073 11.4414 6.09227 11.4859 5.9554 11.5368C5.88856 11.5623 5.88856 11.6562 5.9554 11.6801C6.97076 12.0589 8.11344 12.0779 9.17017 11.6801C9.23702 11.6546 9.23702 11.5607 9.17017 11.5368C8.65613 11.3427 8.11503 11.244 7.56756 11.244C7.1697 11.244 6.76865 11.2965 6.37237 11.4016L6.37396 11.4032Z" fill="#C18F59"/>
<path d="M16.8682 6.2007C16.5515 5.01664 15.7923 4.02834 14.7308 3.41562C13.6693 2.80291 12.4343 2.64058 11.2503 2.95728C11.0911 3.00025 10.9336 3.05118 10.7824 3.11006C10.6933 3.14507 10.6758 3.26284 10.7506 3.32173C11.263 3.72437 11.6991 4.2225 12.0349 4.80339C12.3961 5.42724 12.6094 6.09725 12.689 6.77203C12.6985 6.84683 12.7749 6.89139 12.8449 6.86116C13.4688 6.59379 14.1547 6.44419 14.8756 6.44419C15.5568 6.44419 16.2061 6.57787 16.8013 6.81819C16.8904 6.85479 16.9843 6.77999 16.97 6.6845C16.9446 6.52217 16.9111 6.35984 16.8682 6.1991V6.2007Z" fill="#C18F59"/>
<path d="M15.0539 11.1549C15.5934 10.7809 16.0613 10.2859 16.4114 9.68119C16.7472 9.09871 16.9477 8.46371 17.0082 7.81439C17.0225 7.66002 16.9366 7.51201 16.7965 7.44676C16.2125 7.17621 15.5632 7.02502 14.8772 7.02502C14.1913 7.02502 13.5165 7.18258 12.9229 7.46427C12.8035 7.51997 12.7224 7.63615 12.7128 7.76824C12.6364 8.79792 12.2529 9.79259 11.6004 10.6106C11.559 10.6631 11.602 10.7395 11.6672 10.7284C12.7017 10.574 13.7552 10.7395 14.6847 11.1867C14.804 11.244 14.9441 11.2313 15.0523 11.1565L15.0539 11.1549Z" fill="#C18F59"/>
<path d="M9.70971 20.7929C9.70971 20.6688 9.58398 20.5844 9.46939 20.6306C8.86145 20.8725 8.21054 20.9982 7.55327 20.9982C6.89599 20.9982 6.21643 20.8693 5.57666 20.6019L9.70971 22.9891V20.7929Z" fill="#C18F59"/>
<path d="M0.00012207 12.2753V17.0481L2.1311 15.8179C0.986833 15.003 0.187916 13.7331 0.00012207 12.2753Z" fill="#C18F59"/>
<path d="M2.42236 16.3192L0.289795 17.5494L4.42602 19.9382C3.25629 19.0454 2.55605 17.7181 2.42236 16.3192Z" fill="#C18F59"/>
<path d="M12.447 20.9982C11.7897 20.9982 11.1388 20.8725 10.5308 20.6306C10.4147 20.5844 10.2905 20.6688 10.2905 20.7929V22.9891L14.4252 20.6019C13.7854 20.8693 13.1138 20.9982 12.4486 20.9982H12.447Z" fill="#C18F59"/>
<path d="M18.076 7.55817C19.1089 8.37459 19.8235 9.57774 20.0001 10.9464V6.172L18.0967 7.27011C17.9901 7.33218 17.979 7.48178 18.076 7.55817Z" fill="#C18F59"/>
<path d="M17.8071 16.4513C17.7004 16.3892 17.5652 16.4561 17.5461 16.5786C17.3551 17.8836 16.6692 19.1043 15.5695 19.9414L19.7105 17.551L17.8071 16.4529V16.4513Z" fill="#C18F59"/>
<path d="M18.076 15.6619C17.979 15.7383 17.9901 15.8895 18.0967 15.95L19.9985 17.0481V12.2737C19.8219 13.6423 19.1073 14.8439 18.076 15.6603V15.6619Z" fill="#C18F59"/>
<path d="M15.571 3.28027C16.4782 3.96938 17.1291 4.93222 17.4283 6.04943C17.4808 6.24518 17.5206 6.44252 17.5492 6.63987C17.5667 6.76241 17.702 6.82766 17.8102 6.76718L19.7105 5.67066L15.5726 3.28186L15.571 3.28027Z" fill="#C18F59"/>
<path d="M17.7514 15.1814C18.7954 14.3395 19.4638 13.052 19.4638 11.6101C19.4638 10.1682 18.7954 8.88232 17.7546 8.04203C17.6798 7.98155 17.5684 8.02611 17.5541 8.12001C17.4618 8.76296 17.2469 9.39 16.9127 9.9693C16.553 10.5932 16.0804 11.1136 15.5361 11.521C15.4756 11.5655 15.4756 11.6547 15.5361 11.7008C16.0804 12.1066 16.5514 12.6271 16.9127 13.2509C17.2517 13.8398 17.4618 14.4684 17.5509 15.1034C17.5636 15.1989 17.6766 15.2418 17.7514 15.183V15.1814Z" fill="#C18F59"/>
<path d="M1.92421 7.55817C2.02129 7.48178 2.01015 7.33059 1.90352 7.27011L0.00012207 6.172V10.9464C0.176775 9.57774 0.891345 8.37618 1.92421 7.55817Z" fill="#C18F59"/>
<path d="M10.784 20.1086C12.0349 20.5908 13.4831 20.5271 14.7324 19.8062C15.9801 19.0852 16.7615 17.863 16.9684 16.5373C16.9827 16.4418 16.8888 16.367 16.7997 16.4036C16.2045 16.6439 15.5568 16.776 14.8772 16.776C14.1579 16.776 13.472 16.6264 12.8481 16.3591C12.7797 16.3288 12.7017 16.3734 12.6937 16.4482C12.611 17.1325 12.3913 17.7993 12.0365 18.4152C11.6975 19.0041 11.2582 19.499 10.7537 19.8953C10.6789 19.9542 10.6964 20.0736 10.7856 20.1086H10.784Z" fill="#C18F59"/>
<path d="M17.005 15.4089C16.9461 14.7691 16.7535 14.131 16.4114 13.5389C16.0628 12.9342 15.5949 12.4392 15.0554 12.0652C14.9472 11.9904 14.8056 11.9777 14.6862 12.035C13.9844 12.3724 13.2125 12.5506 12.4311 12.5506C12.1796 12.5506 11.9266 12.5315 11.6736 12.4949C11.6083 12.4854 11.5637 12.5602 11.6051 12.6127C12.0412 13.1602 12.3658 13.7983 12.552 14.4954C12.6364 14.8121 12.6905 15.1336 12.7144 15.4551C12.7239 15.5872 12.8051 15.7033 12.9244 15.759C13.5165 16.0391 14.1785 16.1967 14.8756 16.1967C15.5727 16.1967 16.2076 16.0455 16.7917 15.7765C16.9334 15.7113 17.0177 15.5633 17.0034 15.4089H17.005Z" fill="#C18F59"/>
<path d="M10.2889 2.42412C10.2889 2.54826 10.4131 2.63261 10.5293 2.58645C10.7139 2.51325 10.9048 2.44959 11.1006 2.39707C12.2178 2.09787 13.378 2.17904 14.4284 2.61988L10.2889 0.231079V2.42412Z" fill="#C18F59"/>
<path d="M2.19319 6.76878C2.29982 6.83084 2.43509 6.764 2.45419 6.64305C2.64517 5.33804 3.33109 4.11739 4.43079 3.28027L0.291382 5.67066L2.19478 6.76878H2.19319Z" fill="#C18F59"/>
<path d="M8.89966 2.39707C9.09541 2.44959 9.28639 2.51325 9.471 2.58645C9.58558 2.63261 9.71131 2.54826 9.71131 2.42412V0.231079L5.57349 2.61988C6.62386 2.17904 7.78245 2.09628 8.89966 2.39707Z" fill="#C18F59"/>
</svg>
